<svg width="296" height="296" viewBox="0 0 296 296" fill="none" xmlns="http://www.w3.org/2000/svg">
<g clip-path="url(#clip0_810_606)">
<path d="M296 148C296.052 182.936 283.694 216.755 261.13 243.427C260.311 244.4 259.476 245.357 258.626 246.31C248.622 257.561 236.969 267.229 224.064 274.983C221.104 276.76 218.079 278.435 214.989 280.007C214.677 280.166 214.359 280.324 214.047 280.478C213.673 280.668 213.294 280.852 212.915 281.036C205.097 284.863 196.953 287.986 188.58 290.367C187.709 290.613 186.837 290.852 185.963 291.084C174.949 293.998 163.634 295.629 152.245 295.944C151.651 295.959 151.068 295.969 150.504 295.98C150.305 295.985 150.11 295.99 149.915 295.99C149.275 295.995 148.64 296 148 296C135.998 296.009 124.04 294.559 112.388 291.683C111.22 291.396 110.058 291.094 108.9 290.777C102.804 289.112 96.8219 287.054 90.9919 284.616C87.9192 283.336 84.9012 281.955 81.9378 280.473C81.2669 280.135 80.596 279.797 79.9354 279.449C79.6537 279.31 79.3772 279.162 79.1007 279.019C63.3063 270.682 49.1423 259.57 37.2868 246.213C36.4674 245.296 35.6634 244.364 34.8697 243.427C21.8071 227.939 12.0633 209.935 6.24167 190.528C0.420078 171.122 -1.35533 150.727 1.0254 130.607C3.40614 110.487 9.89234 91.0692 20.0823 73.5575C30.2722 56.0457 43.9489 40.8124 60.2652 28.8011C61.1051 28.1815 61.9501 27.5669 62.8053 26.9678C62.9743 26.85 63.1433 26.7322 63.3123 26.6144C78.3393 16.0885 95.2057 8.47167 113.038 4.15833C114.052 3.9074 115.066 3.67183 116.09 3.45163C135.406 -0.773448 155.368 -1.12332 174.819 2.42228C175.838 2.61176 176.858 2.80636 177.871 3.01633C195.545 6.64131 212.4 13.486 227.597 23.2089C227.935 23.424 228.273 23.639 228.611 23.8644C229.293 24.3048 229.974 24.7554 230.645 25.2112C250.776 38.7454 267.268 57.0255 278.665 78.4391C290.063 99.8528 296.016 123.742 296 148V148Z" fill="#F2F2F2"/>
<path d="M110.616 224.566L63.3123 228.765L62.8053 228.811V26.9679C62.9743 26.8501 63.1433 26.7323 63.3123 26.6145C73.1708 19.7188 83.8352 14.0538 95.0682 9.74561L97.4854 43.084L97.7056 46.1362L100.097 79.1981L100.835 89.3686L110.529 223.388L110.616 224.566Z" fill="#CCCCCC"/>
<path d="M227.597 23.2089C227.935 23.4239 228.273 23.639 228.611 23.8644V228.811L227.597 228.719L180.806 224.566L180.893 223.388L190.587 89.3684L191.325 79.1979L193.716 46.1361L193.936 43.0839L196.471 8.12207C207.403 11.9114 217.85 16.9752 227.597 23.2089V23.2089Z" fill="#CCCCCC"/>
<path d="M227.597 23.209V231.607C227.597 235.607 224.842 238.859 221.452 238.859H69.4576C66.6512 238.859 64.2699 236.626 63.5479 233.579C63.3902 232.934 63.3111 232.272 63.3123 231.607V26.6145C63.1433 26.7323 62.9743 26.8501 62.8053 26.9679C61.9501 27.567 61.1051 28.1816 60.2652 28.8012V231.607C60.2199 234.645 61.3543 237.582 63.4301 239.801C64.5185 240.941 65.8952 241.766 67.4143 242.188C68.0803 242.369 68.7675 242.46 69.4576 242.459H221.452C222.144 242.46 222.833 242.368 223.5 242.188C227.587 241.086 230.644 236.764 230.644 231.607V25.2113C229.974 24.7556 229.292 24.3049 228.611 23.8645C228.273 23.6392 227.935 23.4241 227.597 23.209Z" fill="#CCCCCC"/>
<path d="M229.122 43.0859H61.7888V46.1376H229.122V43.0859Z" fill="#CCCCCC"/>
<path d="M113.038 4.15837C114.052 3.90743 115.066 3.67187 116.09 3.45166V86.3162H113.038V4.15837Z" fill="#CCCCCC"/>
<path d="M174.819 2.42236C175.838 2.61184 176.857 2.80645 177.871 3.01641V86.3163H174.819V2.42236Z" fill="#CCCCCC"/>
<path d="M248.194 223.388H47.8004C44.1577 223.388 40.6642 224.835 38.0884 227.411C35.5126 229.986 34.0656 233.48 34.0656 237.123C34.0656 240.765 35.5126 244.259 38.0884 246.835C40.6642 249.41 44.1577 250.857 47.8004 250.857H248.194C250.145 250.858 252.073 250.442 253.85 249.637C255.627 248.833 257.212 247.658 258.498 246.192C259.08 245.529 259.598 244.812 260.045 244.051C260.39 243.468 260.69 242.858 260.941 242.228C261.777 240.145 262.09 237.887 261.851 235.655C261.613 233.422 260.83 231.282 259.572 229.422C258.314 227.563 256.618 226.04 254.635 224.988C252.651 223.936 250.44 223.386 248.194 223.388V223.388Z" fill="#CCCCCC"/>
<path d="M229.122 79.1973H62.806V89.3695H229.122V79.1973Z" fill="#CCCCCC"/>
<path d="M144.438 76.1455H147.49C148.225 76.1455 148.952 76.2902 149.631 76.5714C150.31 76.8525 150.926 77.2647 151.446 77.7842C151.966 78.3037 152.378 78.9205 152.659 79.5993C152.94 80.278 153.085 81.0056 153.085 81.7403V81.7403H138.844C138.844 80.2565 139.433 78.8334 140.482 77.7842C141.531 76.735 142.954 76.1455 144.438 76.1455H144.438Z" fill="#CCCCCC"/>
<path d="M261.13 243.427C256.682 248.698 251.87 253.652 246.73 258.252H49.2702C44.1304 253.652 39.3185 248.698 34.8696 243.427H261.13Z" fill="#3F3D56"/>
<path d="M164.531 192.077H131.285C131.106 192.075 130.927 192.103 130.757 192.159C130.396 192.271 130.081 192.495 129.857 192.799C129.633 193.103 129.512 193.471 129.513 193.849V246.371H166.308V193.849C166.308 193.616 166.262 193.385 166.172 193.17C166.083 192.955 165.952 192.759 165.787 192.595C165.622 192.43 165.426 192.3 165.21 192.211C164.995 192.122 164.764 192.077 164.531 192.077ZM151.948 217.99C151.95 218.842 151.669 219.67 151.149 220.346C150.654 221.001 149.965 221.485 149.181 221.728C148.396 221.972 147.554 221.963 146.775 221.702C145.996 221.442 145.317 220.944 144.836 220.278C144.355 219.612 144.095 218.812 144.093 217.99V211.896C144.102 210.861 144.52 209.871 145.256 209.142C145.991 208.413 146.985 208.004 148.02 208.004C149.056 208.004 150.05 208.413 150.785 209.142C151.521 209.871 151.939 210.861 151.948 211.896V217.99Z" fill="#2F2E41"/>
<path d="M129.4 244.691V249.756C129.4 250.019 129.504 250.271 129.689 250.457C129.874 250.643 130.126 250.748 130.389 250.75H165.432C165.695 250.748 165.945 250.642 166.131 250.456C166.316 250.27 166.42 250.019 166.421 249.756V244.691H129.4Z" fill="#3F3D56"/>
<path d="M219.583 110.114H77.4722C76.2511 110.116 75.0805 110.601 74.2166 111.464C73.3528 112.327 72.8661 113.497 72.8632 114.718V210.616C72.8641 211.838 73.35 213.01 74.2142 213.874C75.0783 214.738 76.2501 215.224 77.4722 215.225H219.583C220.805 215.224 221.977 214.738 222.841 213.874C223.705 213.01 224.191 211.838 224.192 210.616V114.718C224.189 113.497 223.702 112.327 222.838 111.464C221.974 110.601 220.804 110.116 219.583 110.114V110.114Z" fill="#3F3D56"/>
<path d="M218.395 113.443H78.6551C78.0014 113.444 77.3749 113.705 76.9131 114.168C76.4513 114.63 76.192 115.258 76.1919 115.911V209.433C76.193 210.086 76.4529 210.712 76.9146 211.174C77.3763 211.635 78.0022 211.895 78.6551 211.896H218.395C219.048 211.895 219.674 211.635 220.135 211.174C220.597 210.712 220.857 210.086 220.858 209.433V115.911C220.858 115.258 220.599 114.63 220.137 114.168C219.675 113.705 219.049 113.444 218.395 113.443Z" fill="#170F0E"/>
<path d="M192.677 250.668L191.386 244.538C191.333 244.288 191.217 244.055 191.051 243.861C190.885 243.667 190.672 243.518 190.433 243.427C190.261 243.359 190.076 243.324 189.891 243.324H109.33C109.145 243.324 108.961 243.359 108.788 243.427C108.549 243.518 108.337 243.667 108.17 243.861C108.004 244.055 107.889 244.288 107.835 244.538L106.545 250.668C106.498 250.89 106.502 251.121 106.555 251.342C106.608 251.563 106.711 251.769 106.854 251.945C106.997 252.122 107.178 252.264 107.383 252.362C107.588 252.46 107.813 252.511 108.04 252.512H191.176C191.404 252.513 191.63 252.462 191.835 252.364C192.041 252.265 192.222 252.121 192.364 251.943C192.508 251.767 192.61 251.561 192.664 251.341C192.718 251.12 192.722 250.89 192.677 250.668V250.668Z" fill="#2F2E41"/>
<path d="M112.232 244.428H110.171C110.033 244.428 109.921 244.54 109.921 244.678V245.714C109.921 245.852 110.033 245.964 110.171 245.964H112.232C112.37 245.964 112.482 245.852 112.482 245.714V244.678C112.482 244.54 112.37 244.428 112.232 244.428Z" fill="#3F3D56"/>
<path d="M117.353 244.428H115.292C115.154 244.428 115.042 244.54 115.042 244.678V245.714C115.042 245.852 115.154 245.964 115.292 245.964H117.353C117.491 245.964 117.603 245.852 117.603 245.714V244.678C117.603 244.54 117.491 244.428 117.353 244.428Z" fill="#3F3D56"/>
<path d="M122.474 244.428H120.413C120.275 244.428 120.163 244.54 120.163 244.678V245.714C120.163 245.852 120.275 245.964 120.413 245.964H122.474C122.612 245.964 122.724 245.852 122.724 245.714V244.678C122.724 244.54 122.612 244.428 122.474 244.428Z" fill="#3F3D56"/>
<path d="M127.595 244.428H125.534C125.396 244.428 125.284 244.54 125.284 244.678V245.714C125.284 245.852 125.396 245.964 125.534 245.964H127.595C127.733 245.964 127.845 245.852 127.845 245.714V244.678C127.845 244.54 127.733 244.428 127.595 244.428Z" fill="#3F3D56"/>
<path d="M132.716 244.428H130.655C130.517 244.428 130.405 244.54 130.405 244.678V245.714C130.405 245.852 130.517 245.964 130.655 245.964H132.716C132.854 245.964 132.966 245.852 132.966 245.714V244.678C132.966 244.54 132.854 244.428 132.716 244.428Z" fill="#3F3D56"/>
<path d="M137.837 244.428H135.776C135.638 244.428 135.526 244.54 135.526 244.678V245.714C135.526 245.852 135.638 245.964 135.776 245.964H137.837C137.975 245.964 138.087 245.852 138.087 245.714V244.678C138.087 244.54 137.975 244.428 137.837 244.428Z" fill="#3F3D56"/>
<path d="M142.958 244.428H140.898C140.76 244.428 140.648 244.54 140.648 244.678V245.714C140.648 245.852 140.76 245.964 140.898 245.964H142.958C143.096 245.964 143.208 245.852 143.208 245.714V244.678C143.208 244.54 143.096 244.428 142.958 244.428Z" fill="#3F3D56"/>
<path d="M148.079 244.428H146.019C145.881 244.428 145.769 244.54 145.769 244.678V245.714C145.769 245.852 145.881 245.964 146.019 245.964H148.079C148.217 245.964 148.329 245.852 148.329 245.714V244.678C148.329 244.54 148.217 244.428 148.079 244.428Z" fill="#3F3D56"/>
<path d="M153.2 244.428H151.14C151.002 244.428 150.89 244.54 150.89 244.678V245.714C150.89 245.852 151.002 245.964 151.14 245.964H153.2C153.339 245.964 153.45 245.852 153.45 245.714V244.678C153.45 244.54 153.339 244.428 153.2 244.428Z" fill="#3F3D56"/>
<path d="M158.322 244.428H156.261C156.123 244.428 156.011 244.54 156.011 244.678V245.714C156.011 245.852 156.123 245.964 156.261 245.964H158.322C158.46 245.964 158.572 245.852 158.572 245.714V244.678C158.572 244.54 158.46 244.428 158.322 244.428Z" fill="#3F3D56"/>
<path d="M163.443 244.428H161.382C161.244 244.428 161.132 244.54 161.132 244.678V245.714C161.132 245.852 161.244 245.964 161.382 245.964H163.443C163.581 245.964 163.693 245.852 163.693 245.714V244.678C163.693 244.54 163.581 244.428 163.443 244.428Z" fill="#3F3D56"/>
<path d="M168.564 244.428H166.503C166.365 244.428 166.253 244.54 166.253 244.678V245.714C166.253 245.852 166.365 245.964 166.503 245.964H168.564C168.702 245.964 168.814 245.852 168.814 245.714V244.678C168.814 244.54 168.702 244.428 168.564 244.428Z" fill="#3F3D56"/>
<path d="M173.685 244.428H171.624C171.486 244.428 171.374 244.54 171.374 244.678V245.714C171.374 245.852 171.486 245.964 171.624 245.964H173.685C173.823 245.964 173.935 245.852 173.935 245.714V244.678C173.935 244.54 173.823 244.428 173.685 244.428Z" fill="#3F3D56"/>
<path d="M178.806 244.428H176.745C176.607 244.428 176.495 244.54 176.495 244.678V245.714C176.495 245.852 176.607 245.964 176.745 245.964H178.806C178.944 245.964 179.056 245.852 179.056 245.714V244.678C179.056 244.54 178.944 244.428 178.806 244.428Z" fill="#3F3D56"/>
<path d="M183.927 244.428H181.866C181.728 244.428 181.616 244.54 181.616 244.678V245.714C181.616 245.852 181.728 245.964 181.866 245.964H183.927C184.065 245.964 184.177 245.852 184.177 245.714V244.678C184.177 244.54 184.065 244.428 183.927 244.428Z" fill="#3F3D56"/>
<path d="M189.048 244.428H186.988C186.85 244.428 186.738 244.54 186.738 244.678V245.714C186.738 245.852 186.85 245.964 186.988 245.964H189.048C189.186 245.964 189.298 245.852 189.298 245.714V244.678C189.298 244.54 189.186 244.428 189.048 244.428Z" fill="#3F3D56"/>
<path d="M112.171 246.989H110.11C109.972 246.989 109.86 247.101 109.86 247.239V248.275C109.86 248.413 109.972 248.525 110.11 248.525H112.171C112.309 248.525 112.421 248.413 112.421 248.275V247.239C112.421 247.101 112.309 246.989 112.171 246.989Z" fill="#3F3D56"/>
<path d="M117.292 246.989H115.232C115.094 246.989 114.982 247.101 114.982 247.239V248.275C114.982 248.413 115.094 248.525 115.232 248.525H117.292C117.43 248.525 117.542 248.413 117.542 248.275V247.239C117.542 247.101 117.43 246.989 117.292 246.989Z" fill="#3F3D56"/>
<path d="M122.413 246.989H120.353C120.215 246.989 120.103 247.101 120.103 247.239V248.275C120.103 248.413 120.215 248.525 120.353 248.525H122.413C122.551 248.525 122.663 248.413 122.663 248.275V247.239C122.663 247.101 122.551 246.989 122.413 246.989Z" fill="#3F3D56"/>
<path d="M127.534 246.989H125.474C125.336 246.989 125.224 247.101 125.224 247.239V248.275C125.224 248.413 125.336 248.525 125.474 248.525H127.534C127.672 248.525 127.784 248.413 127.784 248.275V247.239C127.784 247.101 127.672 246.989 127.534 246.989Z" fill="#3F3D56"/>
<path d="M132.655 246.989H130.595C130.457 246.989 130.345 247.101 130.345 247.239V248.275C130.345 248.413 130.457 248.525 130.595 248.525H132.655C132.794 248.525 132.906 248.413 132.906 248.275V247.239C132.906 247.101 132.794 246.989 132.655 246.989Z" fill="#3F3D56"/>
<path d="M137.777 246.989H135.716C135.578 246.989 135.466 247.101 135.466 247.239V248.275C135.466 248.413 135.578 248.525 135.716 248.525H137.777C137.915 248.525 138.027 248.413 138.027 248.275V247.239C138.027 247.101 137.915 246.989 137.777 246.989Z" fill="#3F3D56"/>
<path d="M142.898 246.989H140.837C140.699 246.989 140.587 247.101 140.587 247.239V248.275C140.587 248.413 140.699 248.525 140.837 248.525H142.898C143.036 248.525 143.148 248.413 143.148 248.275V247.239C143.148 247.101 143.036 246.989 142.898 246.989Z" fill="#3F3D56"/>
<path d="M148.019 246.989H145.958C145.82 246.989 145.708 247.101 145.708 247.239V248.275C145.708 248.413 145.82 248.525 145.958 248.525H148.019C148.157 248.525 148.269 248.413 148.269 248.275V247.239C148.269 247.101 148.157 246.989 148.019 246.989Z" fill="#3F3D56"/>
<path d="M153.14 246.989H151.079C150.941 246.989 150.829 247.101 150.829 247.239V248.275C150.829 248.413 150.941 248.525 151.079 248.525H153.14C153.278 248.525 153.39 248.413 153.39 248.275V247.239C153.39 247.101 153.278 246.989 153.14 246.989Z" fill="#3F3D56"/>
<path d="M158.261 246.989H156.2C156.062 246.989 155.95 247.101 155.95 247.239V248.275C155.95 248.413 156.062 248.525 156.2 248.525H158.261C158.399 248.525 158.511 248.413 158.511 248.275V247.239C158.511 247.101 158.399 246.989 158.261 246.989Z" fill="#3F3D56"/>
<path d="M163.382 246.989H161.322C161.183 246.989 161.072 247.101 161.072 247.239V248.275C161.072 248.413 161.183 248.525 161.322 248.525H163.382C163.52 248.525 163.632 248.413 163.632 248.275V247.239C163.632 247.101 163.52 246.989 163.382 246.989Z" fill="#3F3D56"/>
<path d="M168.503 246.989H166.443C166.305 246.989 166.193 247.101 166.193 247.239V248.275C166.193 248.413 166.305 248.525 166.443 248.525H168.503C168.641 248.525 168.753 248.413 168.753 248.275V247.239C168.753 247.101 168.641 246.989 168.503 246.989Z" fill="#3F3D56"/>
<path d="M173.624 246.989H171.564C171.426 246.989 171.314 247.101 171.314 247.239V248.275C171.314 248.413 171.426 248.525 171.564 248.525H173.624C173.762 248.525 173.874 248.413 173.874 248.275V247.239C173.874 247.101 173.762 246.989 173.624 246.989Z" fill="#3F3D56"/>
<path d="M178.745 246.989H176.685C176.547 246.989 176.435 247.101 176.435 247.239V248.275C176.435 248.413 176.547 248.525 176.685 248.525H178.745C178.883 248.525 178.995 248.413 178.995 248.275V247.239C178.995 247.101 178.883 246.989 178.745 246.989Z" fill="#3F3D56"/>
<path d="M183.867 246.989H181.806C181.668 246.989 181.556 247.101 181.556 247.239V248.275C181.556 248.413 181.668 248.525 181.806 248.525H183.867C184.005 248.525 184.117 248.413 184.117 248.275V247.239C184.117 247.101 184.005 246.989 183.867 246.989Z" fill="#3F3D56"/>
<path d="M188.988 246.989H186.927C186.789 246.989 186.677 247.101 186.677 247.239V248.275C186.677 248.413 186.789 248.525 186.927 248.525H188.988C189.126 248.525 189.238 248.413 189.238 248.275V247.239C189.238 247.101 189.126 246.989 188.988 246.989Z" fill="#3F3D56"/>
<path d="M154.676 250.062H134.692C134.554 250.062 134.442 250.173 134.442 250.312V251.348C134.442 251.486 134.554 251.598 134.692 251.598H154.676C154.814 251.598 154.926 251.486 154.926 251.348V250.312C154.926 250.173 154.814 250.062 154.676 250.062Z" fill="#3F3D56"/>
<path d="M211.373 126.326H80.6189C80.483 126.323 80.3536 126.267 80.2585 126.169C80.1635 126.072 80.1102 125.942 80.1102 125.806C80.1102 125.67 80.1635 125.539 80.2585 125.442C80.3536 125.345 80.483 125.289 80.6189 125.286H211.373C211.509 125.289 211.638 125.345 211.733 125.442C211.828 125.539 211.881 125.67 211.881 125.806C211.881 125.942 211.828 126.072 211.733 126.169C211.638 126.267 211.509 126.323 211.373 126.326V126.326Z" fill="#3F3D56"/>
<path d="M89.5195 122.631C91.2024 122.631 92.5667 121.236 92.5667 119.516C92.5667 117.795 91.2024 116.4 89.5195 116.4C87.8365 116.4 86.4722 117.795 86.4722 119.516C86.4722 121.236 87.8365 122.631 89.5195 122.631Z" fill="#3F3D56"/>
<path d="M100.046 122.631C101.729 122.631 103.094 121.236 103.094 119.516C103.094 117.795 101.729 116.4 100.046 116.4C98.3635 116.4 96.9991 117.795 96.9991 119.516C96.9991 121.236 98.3635 122.631 100.046 122.631Z" fill="#3F3D56"/>
<path d="M110.573 122.631C112.256 122.631 113.621 121.236 113.621 119.516C113.621 117.795 112.256 116.4 110.573 116.4C108.89 116.4 107.526 117.795 107.526 119.516C107.526 121.236 108.89 122.631 110.573 122.631Z" fill="#971004"/>
<path d="M205.034 117.171H197.557C197.409 117.174 197.269 117.235 197.165 117.341C197.062 117.447 197.004 117.589 197.004 117.737C197.004 117.885 197.062 118.027 197.165 118.132C197.269 118.238 197.409 118.299 197.557 118.303H205.034C205.182 118.301 205.324 118.24 205.429 118.134C205.533 118.028 205.592 117.885 205.592 117.737C205.592 117.588 205.533 117.445 205.429 117.339C205.324 117.234 205.182 117.173 205.034 117.171Z" fill="#3F3D56"/>
<path d="M205.034 119.296H197.557C197.409 119.3 197.268 119.361 197.165 119.466C197.061 119.572 197.003 119.714 197.003 119.862C197.003 120.01 197.061 120.152 197.165 120.258C197.268 120.364 197.409 120.425 197.557 120.428H205.034C205.183 120.426 205.325 120.366 205.429 120.26C205.534 120.154 205.593 120.011 205.593 119.862C205.593 119.713 205.534 119.57 205.429 119.465C205.325 119.359 205.183 119.298 205.034 119.296V119.296Z" fill="#3F3D56"/>
<path d="M205.034 121.421H197.557C197.409 121.425 197.269 121.486 197.165 121.592C197.062 121.697 197.004 121.839 197.004 121.987C197.004 122.135 197.062 122.277 197.165 122.383C197.269 122.489 197.409 122.55 197.557 122.553H205.034C205.182 122.551 205.324 122.491 205.429 122.385C205.533 122.279 205.592 122.136 205.592 121.987C205.592 121.839 205.533 121.696 205.429 121.59C205.324 121.484 205.182 121.423 205.034 121.421V121.421Z" fill="#3F3D56"/>
<path d="M91.8933 138.41H89.2067C88.3921 138.41 87.7318 139.07 87.7318 139.885C87.7318 140.699 88.3921 141.359 89.2067 141.359H91.8933C92.7078 141.359 93.3681 140.699 93.3681 139.885C93.3681 139.07 92.7078 138.41 91.8933 138.41Z" fill="#E6E6E6"/>
<path d="M122.62 138.41H119.933C119.119 138.41 118.458 139.07 118.458 139.885C118.458 140.699 119.119 141.359 119.933 141.359H122.62C123.434 141.359 124.095 140.699 124.095 139.885C124.095 139.07 123.434 138.41 122.62 138.41Z" fill="#E6E6E6"/>
<path d="M131.326 138.41H128.639C127.825 138.41 127.164 139.07 127.164 139.885C127.164 140.699 127.825 141.359 128.639 141.359H131.326C132.14 141.359 132.801 140.699 132.801 139.885C132.801 139.07 132.14 138.41 131.326 138.41Z" fill="#E6E6E6"/>
<path d="M114.262 138.164H97.5643C96.7498 138.164 96.0895 138.824 96.0895 139.639C96.0895 140.453 96.7498 141.114 97.5643 141.114H114.262C115.077 141.114 115.737 140.453 115.737 139.639C115.737 138.824 115.077 138.164 114.262 138.164Z" fill="#971004"/>
<path d="M155.231 138.164H138.533C137.719 138.164 137.058 138.824 137.058 139.639C137.058 140.453 137.719 141.114 138.533 141.114H155.231C156.045 141.114 156.706 140.453 156.706 139.639C156.706 138.824 156.045 138.164 155.231 138.164Z" fill="#E6E6E6"/>
<path d="M100.087 145.067H97.4004C96.5859 145.067 95.9255 145.728 95.9255 146.542C95.9255 147.357 96.5859 148.017 97.4004 148.017H100.087C100.902 148.017 101.562 147.357 101.562 146.542C101.562 145.728 100.902 145.067 100.087 145.067Z" fill="#E6E6E6"/>
<path d="M130.814 145.067H128.127C127.313 145.067 126.652 145.728 126.652 146.542C126.652 147.357 127.313 148.017 128.127 148.017H130.814C131.628 148.017 132.289 147.357 132.289 146.542C132.289 145.728 131.628 145.067 130.814 145.067Z" fill="#E6E6E6"/>
<path d="M139.52 145.067H136.833C136.018 145.067 135.358 145.728 135.358 146.542C135.358 147.357 136.018 148.017 136.833 148.017H139.52C140.334 148.017 140.994 147.357 140.994 146.542C140.994 145.728 140.334 145.067 139.52 145.067Z" fill="#E6E6E6"/>
<path d="M122.456 144.821H105.758C104.944 144.821 104.283 145.482 104.283 146.296C104.283 147.111 104.944 147.771 105.758 147.771H122.456C123.27 147.771 123.931 147.111 123.931 146.296C123.931 145.482 123.27 144.821 122.456 144.821Z" fill="#E6E6E6"/>
<path d="M163.425 144.821H146.727C145.913 144.821 145.252 145.482 145.252 146.296C145.252 147.111 145.913 147.771 146.727 147.771H163.425C164.239 147.771 164.9 147.111 164.9 146.296C164.9 145.482 164.239 144.821 163.425 144.821Z" fill="#E6E6E6"/>
<path d="M108.281 151.725H105.594C104.78 151.725 104.119 152.385 104.119 153.199C104.119 154.014 104.78 154.674 105.594 154.674H108.281C109.095 154.674 109.756 154.014 109.756 153.199C109.756 152.385 109.095 151.725 108.281 151.725Z" fill="#971004"/>
<path d="M139.007 151.725H136.321C135.506 151.725 134.846 152.385 134.846 153.199C134.846 154.014 135.506 154.674 136.321 154.674H139.007C139.822 154.674 140.482 154.014 140.482 153.199C140.482 152.385 139.822 151.725 139.007 151.725Z" fill="#E6E6E6"/>
<path d="M147.713 151.725H145.027C144.212 151.725 143.552 152.385 143.552 153.199C143.552 154.014 144.212 154.674 145.027 154.674H147.713C148.528 154.674 149.188 154.014 149.188 153.199C149.188 152.385 148.528 151.725 147.713 151.725Z" fill="#E6E6E6"/>
<path d="M130.65 151.479H113.952C113.137 151.479 112.477 152.139 112.477 152.954C112.477 153.768 113.137 154.429 113.952 154.429H130.65C131.464 154.429 132.125 153.768 132.125 152.954C132.125 152.139 131.464 151.479 130.65 151.479Z" fill="#E6E6E6"/>
<path d="M171.619 151.479H154.921C154.106 151.479 153.446 152.139 153.446 152.954C153.446 153.768 154.106 154.429 154.921 154.429H171.619C172.433 154.429 173.093 153.768 173.093 152.954C173.093 152.139 172.433 151.479 171.619 151.479Z" fill="#E6E6E6"/>
<path d="M116.475 158.382H113.788C112.973 158.382 112.313 159.043 112.313 159.857C112.313 160.672 112.973 161.332 113.788 161.332H116.475C117.289 161.332 117.949 160.672 117.949 159.857C117.949 159.043 117.289 158.382 116.475 158.382Z" fill="#E6E6E6"/>
<path d="M147.201 158.382H144.515C143.7 158.382 143.04 159.043 143.04 159.857C143.04 160.672 143.7 161.332 144.515 161.332H147.201C148.016 161.332 148.676 160.672 148.676 159.857C148.676 159.043 148.016 158.382 147.201 158.382Z" fill="#E6E6E6"/>
<path d="M155.907 158.382H153.22C152.406 158.382 151.746 159.043 151.746 159.857C151.746 160.672 152.406 161.332 153.22 161.332H155.907C156.722 161.332 157.382 160.672 157.382 159.857C157.382 159.043 156.722 158.382 155.907 158.382Z" fill="#E6E6E6"/>
<path d="M138.844 158.136H122.146C121.331 158.136 120.671 158.797 120.671 159.611C120.671 160.426 121.331 161.086 122.146 161.086H138.844C139.658 161.086 140.318 160.426 140.318 159.611C140.318 158.797 139.658 158.136 138.844 158.136Z" fill="#E6E6E6"/>
<path d="M122.62 184.855H119.933C119.119 184.855 118.458 185.515 118.458 186.33C118.458 187.144 119.119 187.805 119.933 187.805H122.62C123.434 187.805 124.095 187.144 124.095 186.33C124.095 185.515 123.434 184.855 122.62 184.855Z" fill="#E6E6E6"/>
<path d="M131.326 184.855H128.639C127.825 184.855 127.164 185.515 127.164 186.33C127.164 187.144 127.825 187.805 128.639 187.805H131.326C132.14 187.805 132.801 187.144 132.801 186.33C132.801 185.515 132.14 184.855 131.326 184.855Z" fill="#E6E6E6"/>
<path d="M155.231 185.101H138.533C137.719 185.101 137.058 185.761 137.058 186.576C137.058 187.39 137.719 188.051 138.533 188.051H155.231C156.045 188.051 156.706 187.39 156.706 186.576C156.706 185.761 156.045 185.101 155.231 185.101Z" fill="#E6E6E6"/>
<path d="M91.8933 184.855H89.2067C88.3921 184.855 87.7318 185.515 87.7318 186.33C87.7318 187.144 88.3921 187.805 89.2067 187.805H91.8933C92.7078 187.805 93.3681 187.144 93.3681 186.33C93.3681 185.515 92.7078 184.855 91.8933 184.855Z" fill="#E6E6E6"/>
<path d="M114.262 185.101H97.5643C96.7498 185.101 96.0895 185.761 96.0895 186.576C96.0895 187.39 96.7498 188.051 97.5643 188.051H114.262C115.077 188.051 115.737 187.39 115.737 186.576C115.737 185.761 115.077 185.101 114.262 185.101Z" fill="#971004"/>
<path d="M100.087 178.198H97.4004C96.5859 178.198 95.9255 178.858 95.9255 179.673C95.9255 180.487 96.5859 181.147 97.4004 181.147H100.087C100.902 181.147 101.562 180.487 101.562 179.673C101.562 178.858 100.902 178.198 100.087 178.198Z" fill="#E6E6E6"/>
<path d="M130.814 178.198H128.127C127.313 178.198 126.652 178.858 126.652 179.673C126.652 180.487 127.313 181.147 128.127 181.147H130.814C131.628 181.147 132.289 180.487 132.289 179.673C132.289 178.858 131.628 178.198 130.814 178.198Z" fill="#E6E6E6"/>
<path d="M139.52 178.198H136.833C136.018 178.198 135.358 178.858 135.358 179.673C135.358 180.487 136.018 181.147 136.833 181.147H139.52C140.334 181.147 140.994 180.487 140.994 179.673C140.994 178.858 140.334 178.198 139.52 178.198Z" fill="#E6E6E6"/>
<path d="M122.456 178.443H105.758C104.944 178.443 104.283 179.104 104.283 179.918C104.283 180.733 104.944 181.393 105.758 181.393H122.456C123.27 181.393 123.931 180.733 123.931 179.918C123.931 179.104 123.27 178.443 122.456 178.443Z" fill="#E6E6E6"/>
<path d="M108.281 171.54H105.594C104.78 171.54 104.119 172.2 104.119 173.015C104.119 173.83 104.78 174.49 105.594 174.49H108.281C109.095 174.49 109.756 173.83 109.756 173.015C109.756 172.2 109.095 171.54 108.281 171.54Z" fill="#E6E6E6"/>
<path d="M139.007 171.54H136.321C135.506 171.54 134.846 172.2 134.846 173.015C134.846 173.83 135.506 174.49 136.321 174.49H139.007C139.822 174.49 140.482 173.83 140.482 173.015C140.482 172.2 139.822 171.54 139.007 171.54Z" fill="#E6E6E6"/>
<path d="M147.713 171.54H145.027C144.212 171.54 143.552 172.2 143.552 173.015C143.552 173.83 144.212 174.49 145.027 174.49H147.713C148.528 174.49 149.188 173.83 149.188 173.015C149.188 172.2 148.528 171.54 147.713 171.54Z" fill="#E6E6E6"/>
<path d="M130.65 171.786H113.952C113.137 171.786 112.477 172.446 112.477 173.261C112.477 174.076 113.137 174.736 113.952 174.736H130.65C131.464 174.736 132.125 174.076 132.125 173.261C132.125 172.446 131.464 171.786 130.65 171.786Z" fill="#E6E6E6"/>
<path d="M116.475 164.883H113.788C112.973 164.883 112.313 165.543 112.313 166.358C112.313 167.172 112.973 167.833 113.788 167.833H116.475C117.289 167.833 117.949 167.172 117.949 166.358C117.949 165.543 117.289 164.883 116.475 164.883Z" fill="#E6E6E6"/>
<path d="M147.201 164.883H144.515C143.7 164.883 143.04 165.543 143.04 166.358C143.04 167.172 143.7 167.833 144.515 167.833H147.201C148.016 167.833 148.676 167.172 148.676 166.358C148.676 165.543 148.016 164.883 147.201 164.883Z" fill="#E6E6E6"/>
<path d="M155.907 164.883H153.22C152.406 164.883 151.746 165.543 151.746 166.358C151.746 167.172 152.406 167.833 153.22 167.833H155.907C156.722 167.833 157.382 167.172 157.382 166.358C157.382 165.543 156.722 164.883 155.907 164.883Z" fill="#E6E6E6"/>
<path d="M138.844 165.128H122.146C121.331 165.128 120.671 165.789 120.671 166.603C120.671 167.418 121.331 168.078 122.146 168.078H138.844C139.658 168.078 140.318 167.418 140.318 166.603C140.318 165.789 139.658 165.128 138.844 165.128Z" fill="#971004"/>
<path d="M212.941 281.031C212.628 281.19 212.311 281.349 211.999 281.502C203.907 285.548 197.434 287.847 188.58 290.367C187.832 282.02 187.11 267.348 186.408 258.252C186.224 255.892 186.04 253.91 185.86 252.512C185.815 251.768 185.663 251.035 185.41 250.335L185.44 252.512L185.517 258.252L185.963 291.084C174.949 293.998 163.634 295.629 152.245 295.944C151.651 295.959 151.068 295.969 150.504 295.98C150.305 295.985 150.11 295.99 149.915 295.99C149.275 295.995 148.64 296 148 296C135.998 296.009 124.04 294.559 112.388 291.683C112.639 283.423 112.89 268.915 113.13 258.252C113.182 256.168 113.228 254.227 113.279 252.512C113.376 248.845 113.479 246.203 113.576 245.317C113.49 245.474 113.423 245.64 113.376 245.813C112.902 248.022 112.579 250.26 112.408 252.512C112.229 254.227 112.05 256.168 111.871 258.252C110.918 269.329 109.925 284.391 108.9 290.777C102.804 289.112 96.8219 287.054 90.9919 284.616C87.9192 283.336 84.9012 281.955 81.9377 280.473C82.5011 276.786 83.09 272.653 83.6943 268.367C84.1654 265.043 84.6519 261.627 85.1487 258.252C85.9168 253.039 86.7055 247.928 87.5044 243.427C88.672 236.851 89.8703 231.566 91.0584 229.139C92.1851 226.834 93.3117 224.561 94.4025 222.384C94.7815 221.621 95.1605 220.868 95.5292 220.136C95.6162 219.962 95.7033 219.793 95.7903 219.624C96.5739 218.082 97.3318 216.608 98.0539 215.225C98.6735 214.042 99.2625 212.926 99.8207 211.896C101.173 209.397 102.32 207.405 103.17 206.145C106.724 200.754 112.015 196.741 118.164 194.771L118.318 194.73L118.426 194.776L128.898 191.56L130.43 191.089L131.459 190.772L135.085 188.011L137.056 186.511L138.905 185.103L142.52 182.353L164.905 183.73L169.263 194.223L179.024 197.793L179.193 197.716L179.341 197.654L179.495 197.695C185.643 199.667 190.934 203.68 194.489 209.069C194.971 209.791 195.555 210.744 196.215 211.896C196.779 212.874 197.393 213.991 198.059 215.225C199.006 216.982 200.041 218.963 201.137 221.109C201.377 221.58 201.623 222.062 201.869 222.548C202.325 223.449 202.787 224.369 203.257 225.308C204.348 227.485 205.474 229.759 206.601 232.068C207.579 234.071 208.567 238.188 209.54 243.427C210.344 247.78 211.143 252.911 211.917 258.252C212.931 265.176 211.85 273.467 212.767 279.838C212.823 280.243 212.884 280.637 212.941 281.031Z" fill="#3F3D56"/>
<path d="M148.315 173.976C162.693 173.976 174.349 162.321 174.349 147.943C174.349 133.564 162.693 121.909 148.315 121.909C133.937 121.909 122.281 133.564 122.281 147.943C122.281 162.321 133.937 173.976 148.315 173.976Z" fill="#A0616A"/>
<path d="M191.248 113.443C190.733 112.241 190.049 111.12 189.215 110.114C185.261 105.285 178.071 103.159 170.692 108.875C169.271 108.557 167.79 108.642 166.416 109.12C165.767 109.355 165.158 109.691 164.613 110.114C163.496 110.986 162.624 112.133 162.083 113.443C161.794 114.134 161.604 114.864 161.52 115.609C159.696 114.661 157.765 113.934 155.769 113.443C150.871 112.224 145.749 112.224 140.851 113.443C139.281 113.84 137.77 114.439 136.355 115.225C133.958 116.607 132.58 118.354 132.335 120.295C128.878 120.489 125.283 122.307 122.604 125.288C122.302 125.621 122.01 125.969 121.739 126.327C119.487 129.274 118.276 132.886 118.298 136.595V137.246H118.948C120.73 137.244 122.495 137.588 124.146 138.259C125.216 138.689 126.229 139.248 127.162 139.924C127.773 140.357 128.35 140.837 128.888 141.358C130.135 142.565 131.192 143.955 132.022 145.48C134.15 149.334 134.888 153.802 134.112 158.135C133.934 159.137 133.673 160.124 133.333 161.084C132.849 162.454 132.212 163.765 131.433 164.992C131.403 165.038 131.377 165.084 131.346 165.13C131.003 165.678 130.675 166.236 130.368 166.799C130.138 167.219 129.923 167.65 129.723 168.08C129.139 169.277 128.646 170.516 128.248 171.787C127.535 174.035 127.115 176.366 126.998 178.721C126.963 179.346 126.952 179.971 126.973 180.596C127.003 182.206 127.18 183.811 127.5 185.389C127.546 185.604 127.592 185.814 127.639 186.029L128.012 187.663L128.898 191.56L129.513 194.243L130.081 196.732L130.921 195.529C131.208 195.119 131.93 193.859 132.898 192.077C133.538 190.915 134.281 189.527 135.085 188.011C136.206 185.886 137.435 183.515 138.639 181.149C139.125 180.191 139.607 179.239 140.073 178.307C140.953 176.54 141.783 174.834 142.495 173.319C143.15 171.921 143.709 170.681 144.123 169.688C144.251 170.338 144.359 170.999 144.441 171.665C144.533 172.34 144.6 173.027 144.635 173.713C144.646 173.815 144.651 173.923 144.656 174.025L144.676 174.445L144.682 174.568L145.224 174.64C148.355 174.975 151.512 174.999 154.647 174.712H154.652C158.806 174.399 162.882 173.411 166.718 171.787C168.897 170.842 170.931 169.594 172.761 168.08C173.616 167.372 174.414 166.598 175.147 165.765C175.331 165.555 175.511 165.345 175.685 165.13C176.698 163.884 177.566 162.527 178.271 161.084C178.743 160.132 179.144 159.146 179.469 158.135C181.436 152.179 181.323 144.748 179.131 135.919C179.723 135.805 180.29 135.587 180.806 135.274C182.414 134.306 183.53 132.386 183.879 130.04L184.432 130.189C186.392 129.275 188.139 127.96 189.558 126.327C189.839 125.995 190.102 125.648 190.347 125.288C192.851 121.601 192.871 117.176 191.248 113.443Z" fill="#2F2E41"/>
<path opacity="0.2" d="M105.659 243.404L110.01 226.611L113.852 241.102L105.659 243.404Z" fill="black"/>
<path d="M221.452 232.462C219.895 253.91 221.508 263.353 212.915 281.036C205.097 284.863 196.953 287.985 188.58 290.367C187.709 290.613 186.837 290.852 185.963 291.084C174.949 293.998 163.634 295.629 152.245 295.944C151.651 295.959 151.068 295.969 150.504 295.979C150.305 295.985 150.11 295.99 149.915 295.99C149.275 295.995 148.64 296 148 296C135.998 296.009 124.04 294.559 112.388 291.683C111.22 291.396 110.058 291.094 108.9 290.776C102.804 289.112 96.822 287.054 90.9919 284.616C87.9192 283.335 84.9012 281.954 81.9378 280.473C81.2669 280.135 80.596 279.797 79.9354 279.449C76.5401 273.477 74.6095 266.216 74.5685 257.489C76.9191 242.454 216.259 219.496 221.452 232.462Z" fill="#2F2E41"/>
<path opacity="0.2" d="M221.448 236.135C221.527 234.808 221.616 233.436 221.72 232.008C216.527 219.041 77.187 241.999 74.8364 257.035C74.8429 258.413 74.9018 259.751 75.001 261.057C80.6934 246.217 213.068 224.397 221.448 236.135Z" fill="black"/>
<path d="M83.5229 175.22C83.5569 174.755 83.491 174.289 83.3296 173.852C83.1683 173.416 82.9153 173.019 82.5876 172.688C82.26 172.357 81.8653 172.101 81.4301 171.935C80.9949 171.77 80.5294 171.7 80.0648 171.729C79.8917 171.736 79.7195 171.757 79.5501 171.794L59.1875 176.394C58.7325 176.504 58.3056 176.709 57.9344 176.994C57.5632 177.279 57.2558 177.639 57.0322 178.05C56.7335 178.062 56.437 178.105 56.1475 178.179C55.5139 178.323 54.9147 178.59 54.3842 178.965C53.8538 179.34 53.4024 179.816 53.0559 180.366C52.7094 180.915 52.4745 181.528 52.3647 182.168C52.2549 182.809 52.2724 183.464 52.416 184.098C52.5596 184.732 52.8266 185.331 53.2018 185.861C53.577 186.392 54.053 186.843 54.6026 187.19C55.7127 187.889 57.0552 188.12 58.335 187.83C59.0634 187.661 59.7448 187.331 60.3294 186.865L67.2296 206.294C67.5743 206.903 68.1067 207.384 68.7474 207.665C69.3881 207.947 70.1026 208.013 70.7841 207.854L84.0215 204.863C84.6978 204.704 85.3065 204.336 85.7602 203.81C86.2139 203.284 86.4892 202.628 86.5467 201.935L83.5229 175.22ZM58.0294 186.446C57.1154 186.653 56.157 186.488 55.3642 185.988C54.5715 185.489 54.0091 184.696 53.8005 183.782C53.5918 182.869 53.7539 181.91 54.2512 181.116C54.7484 180.322 55.5403 179.757 56.4531 179.546C56.5174 179.53 56.5818 179.546 56.6461 179.53C56.6413 180.116 56.7911 180.693 57.0805 181.203L59.6056 185.61C59.166 186.027 58.6211 186.316 58.0294 186.446Z" fill="#2F2E41"/>
<path d="M80.0648 171.729C80.2578 174.303 75.8507 177.262 69.9478 178.436C64.5273 179.546 59.67 178.774 58.3027 176.747C58.5775 176.584 58.876 176.465 59.1875 176.393L79.55 171.793C79.7194 171.757 79.8916 171.736 80.0648 171.729V171.729Z" fill="#3F3D56"/>
<path d="M65.982 237.059L77.4194 231.34L67.8883 205.606L65.3764 192.628C65.05 190.942 64.2869 189.371 63.1632 188.073C62.0396 186.774 60.5948 185.793 58.9731 185.227C57.3515 184.662 55.6099 184.532 53.9223 184.85C52.2348 185.169 50.6603 185.925 49.3564 187.042V187.042C47.4242 188.699 46.2109 191.041 45.9728 193.575C45.7346 196.108 46.4902 198.636 48.08 200.623L57.4041 212.278L65.982 237.059Z" fill="#A0616A"/>
<path d="M77.4194 226.575L62.1697 234.199L73.7426 270.461C74.5737 273.065 76.0634 275.41 78.0675 277.269C80.0716 279.128 82.5219 280.437 85.181 281.071V281.071C88.4597 281.851 91.9018 281.567 95.0083 280.26C98.1148 278.953 100.724 276.69 102.458 273.8L133.146 221.199C135.321 217.575 135.992 213.243 135.017 209.13C134.041 205.018 131.496 201.449 127.925 199.188V199.188C126.005 197.971 123.849 197.173 121.6 196.845C119.35 196.516 117.057 196.665 114.869 197.282C112.68 197.899 110.647 198.969 108.9 200.424C107.153 201.878 105.731 203.685 104.729 205.725L85.9975 245.637L77.4194 226.575Z" fill="#3F3D56"/>
<path d="M72.7027 193.804C72.6743 193.804 72.6462 193.799 72.6194 193.79L69.2899 192.644C69.2497 192.63 69.2136 192.606 69.1847 192.575C69.1559 192.544 69.1354 192.506 69.1249 192.465C69.1145 192.423 69.1144 192.38 69.1249 192.339C69.1353 192.298 69.1559 192.26 69.1847 192.229L71.661 189.532C71.6836 189.508 71.711 189.487 71.7415 189.473C71.772 189.459 71.8051 189.451 71.8387 189.449C71.8724 189.447 71.906 189.453 71.9377 189.464C71.9694 189.476 71.9985 189.493 72.0233 189.516C72.0481 189.539 72.0682 189.566 72.0824 189.597C72.0966 189.627 72.1046 189.661 72.106 189.694C72.1073 189.728 72.102 189.762 72.0904 189.793C72.0787 189.825 72.0609 189.854 72.038 189.879L69.8263 192.287L72.7859 193.306C72.8432 193.325 72.8917 193.365 72.9227 193.417C72.9537 193.469 72.9652 193.53 72.9552 193.59C72.9452 193.65 72.9144 193.704 72.8681 193.743C72.8219 193.782 72.7633 193.804 72.7027 193.804V193.804Z" fill="white"/>
<path d="M77.2665 192.87C77.2155 192.87 77.1657 192.854 77.1234 192.826C77.0811 192.797 77.0483 192.757 77.0291 192.71C77.01 192.662 77.0054 192.61 77.016 192.56C77.0266 192.511 77.0518 192.465 77.0885 192.429L79.3389 190.254L76.3158 189.008C76.2847 188.995 76.2564 188.976 76.2325 188.953C76.2086 188.929 76.1897 188.901 76.1767 188.87C76.1638 188.839 76.1571 188.805 76.157 188.772C76.1569 188.738 76.1635 188.705 76.1763 188.673C76.1891 188.642 76.2079 188.614 76.2317 188.59C76.2555 188.566 76.2837 188.548 76.3148 188.535C76.3459 188.522 76.3792 188.515 76.4128 188.515C76.4465 188.515 76.4798 188.522 76.5109 188.535L79.8955 189.929C79.9349 189.946 79.9695 189.971 79.9964 190.004C80.0233 190.037 80.0416 190.076 80.0496 190.118C80.0576 190.16 80.055 190.203 80.0422 190.243C80.0294 190.284 80.0066 190.321 79.9761 190.35L77.4445 192.798C77.3968 192.844 77.3329 192.87 77.2665 192.87Z" fill="white"/>
<path d="M73.4017 195.37C73.3761 195.37 73.3507 195.366 73.3264 195.359C73.2942 195.349 73.2643 195.333 73.2384 195.311C73.2125 195.29 73.191 195.264 73.1753 195.234C73.1595 195.204 73.1498 195.172 73.1466 195.138C73.1435 195.105 73.147 195.071 73.1569 195.039L75.5201 187.357C75.5404 187.292 75.5854 187.238 75.6454 187.207C75.7054 187.175 75.7754 187.169 75.8402 187.189C75.905 187.209 75.9592 187.253 75.991 187.313C76.0228 187.373 76.0295 187.443 76.0098 187.508L73.6465 195.19C73.6303 195.242 73.5978 195.288 73.5538 195.32C73.5097 195.353 73.4564 195.37 73.4017 195.37V195.37Z" fill="white"/>
</g>
<defs>
<clipPath id="clip0_810_606">
<rect width="296" height="296" fill="white"/>
</clipPath>
</defs>
</svg>
