<svg width="424" height="284" viewBox="0 0 424 284" fill="none" xmlns="http://www.w3.org/2000/svg">
<g clip-path="url(#clip0_810_712)">
<path d="M337.772 125.683L339.031 115.596C339.478 112.011 341.331 108.751 344.183 106.532C347.034 104.314 350.651 103.319 354.236 103.766C357.821 104.213 361.082 106.066 363.301 108.917C365.52 111.768 366.515 115.384 366.068 118.968L364.809 129.055C364.749 129.536 364.5 129.974 364.117 130.272C363.734 130.57 363.248 130.704 362.767 130.644L339.362 127.725C338.88 127.664 338.443 127.415 338.145 127.032C337.847 126.649 337.713 126.164 337.772 125.683V125.683Z" fill="#2F2E41"/>
<path d="M348.984 128.692C354.5 128.692 358.972 124.221 358.972 118.705C358.972 113.19 354.5 108.719 348.984 108.719C343.467 108.719 338.995 113.19 338.995 118.705C338.995 124.221 343.467 128.692 348.984 128.692Z" fill="#FFB8B8"/>
<path d="M335.732 116.004C336.089 113.17 337.556 110.593 339.811 108.838C342.065 107.084 344.924 106.296 347.76 106.646L349.778 106.898C352.612 107.255 355.19 108.721 356.945 110.976C358.699 113.23 359.488 116.088 359.137 118.923L359.112 119.125L354.848 118.593L353.902 114.34L353.103 118.376L350.899 118.101L350.422 115.955L350.019 117.991L335.707 116.206L335.732 116.004Z" fill="#2F2E41"/>
<path d="M300.132 154.329C300.437 154.928 300.87 155.453 301.4 155.867C301.93 156.281 302.545 156.574 303.2 156.724C303.856 156.875 304.537 156.88 305.194 156.739C305.852 156.599 306.471 156.316 307.007 155.91L316.079 161.223L320.653 156.499L307.737 149.175C306.995 148.319 305.966 147.765 304.843 147.618C303.72 147.47 302.582 147.739 301.645 148.375C300.707 149.01 300.035 149.967 299.757 151.064C299.478 152.162 299.611 153.323 300.132 154.329V154.329Z" fill="#FFB8B8"/>
<path d="M329.865 163.876C323.173 163.876 311.398 160.881 310.746 160.714L310.54 160.661L312.393 151.279L330.379 154.831L340.15 141.074L351.368 139.934L351.055 140.346C350.909 140.538 336.448 159.571 334.198 162.763C333.63 163.569 332.008 163.876 329.865 163.876Z" fill="#3F3D56"/>
<path d="M331.659 199.088L331.391 198.96C331.334 198.933 325.649 196.168 322.704 190.77C319.773 185.398 333.493 162.609 334.453 161.028L334.467 153.791L339.402 140.468L345.696 136.912L340.292 149.518L331.659 199.088Z" fill="#3F3D56"/>
<path d="M325.353 276.872L319.338 276.872L316.476 253.673L325.354 253.674L325.353 276.872Z" fill="#FFB8B8"/>
<path d="M326.887 282.702L307.491 282.701V282.456C307.491 280.454 308.287 278.534 309.702 277.119C311.118 275.703 313.038 274.908 315.041 274.908H315.041L326.888 274.908L326.887 282.702Z" fill="#2F2E41"/>
<path d="M389.966 271.601L384.25 273.474L374.306 252.32L382.742 249.556L389.966 271.601Z" fill="#FFB8B8"/>
<path d="M393.24 276.664L374.808 282.702L374.731 282.469C374.108 280.566 374.266 278.494 375.171 276.708C376.075 274.923 377.652 273.569 379.555 272.946L379.555 272.945L390.813 269.258L393.24 276.664Z" fill="#2F2E41"/>
<path d="M378.32 267.809L361.171 239.185L346.695 208.604L333.668 235.617L328.494 270.604L310.345 270.856L310.417 270.572L338.189 160.24L359.94 163.489L358.95 177.843L359.54 178.682C364.453 185.661 369.534 192.876 366.62 200.655L374.88 225.177L393.164 266.01L378.32 267.809Z" fill="#2F2E41"/>
<path d="M339.183 184.152C336.031 184.152 332.435 180.554 334.301 174.411L334.18 174.323L338.661 154.53C334.75 148.939 339.906 144.324 340.389 143.912L342.85 139.483L353.708 132.598L359.202 178.238L359.121 178.316C355.153 182.111 341.827 184.152 339.183 184.152Z" fill="#971004"/>
<path d="M361.42 194.45C360.989 194.457 360.558 194.411 360.138 194.315C359.715 194.209 359.032 193.671 357.975 190.232C353.775 176.56 348.817 135.423 352.419 131.398L352.502 131.306L358.417 132.291C358.908 131.928 361.489 130.128 363.869 130.441C364.36 130.502 364.832 130.664 365.257 130.915C365.683 131.167 366.052 131.502 366.342 131.902L366.383 131.955L368.267 158.759L375.171 190.301L375.005 190.376C374.604 190.559 365.983 194.45 361.42 194.45Z" fill="#3F3D56"/>
<path d="M357.442 183.974C358.114 183.952 358.774 183.782 359.373 183.478C359.973 183.173 360.498 182.74 360.913 182.211C361.327 181.681 361.62 181.067 361.772 180.412C361.923 179.756 361.929 179.076 361.789 178.418L370.448 172.455L368.107 166.311L355.997 174.903C354.908 175.212 353.969 175.909 353.36 176.863C352.75 177.817 352.512 178.962 352.69 180.08C352.868 181.198 353.45 182.212 354.326 182.93C355.202 183.648 356.311 184.019 357.442 183.974V183.974Z" fill="#FFB8B8"/>
<path d="M367.59 177.233L359.878 171.578L370.719 156.797L362.399 142.118L366.122 131.476L366.362 131.934C366.474 132.147 377.585 153.31 379.523 156.701C381.54 160.229 368.291 176.383 367.726 177.069L367.59 177.233Z" fill="#3F3D56"/>
<path d="M194.099 243.762L187.535 240.998L183.032 208.097H123.065L118.184 240.864L112.311 243.8C112.03 243.94 111.805 244.172 111.672 244.456C111.539 244.741 111.506 245.062 111.578 245.367C111.65 245.673 111.823 245.946 112.07 246.14C112.316 246.335 112.621 246.441 112.935 246.441H193.558C193.88 246.441 194.192 246.33 194.441 246.126C194.69 245.922 194.861 245.639 194.925 245.323C194.989 245.007 194.941 244.68 194.791 244.395C194.64 244.111 194.396 243.887 194.099 243.762V243.762Z" fill="#E6E6E6"/>
<path d="M300.663 212.475H6.09185C4.54632 212.471 3.06527 211.855 1.97364 210.761C0.882004 209.667 0.268931 208.185 0.268921 206.64V165.108H306.486V206.64C306.486 208.185 305.873 209.667 304.782 210.761C303.69 211.855 302.209 212.471 300.663 212.475V212.475Z" fill="#CCCCCC"/>
<path d="M306.794 184.737H0V7.03393C0.00215506 5.16904 0.744081 3.38114 2.06302 2.06248C3.38195 0.743825 5.17018 0.00209148 7.0354 0H299.759C301.624 0.00208668 303.412 0.743819 304.731 2.06248C306.05 3.38113 306.792 5.16903 306.794 7.03393V184.737Z" fill="#3F3D56"/>
<path d="M288.471 171.84H18.3236C16.8856 171.838 15.507 171.266 14.4902 170.25C13.4734 169.233 12.9014 167.855 12.8998 166.417V18.3205C12.9014 16.8827 13.4733 15.5043 14.4901 14.4877C15.5069 13.471 16.8856 12.8991 18.3236 12.8975H288.471C289.909 12.8991 291.287 13.471 292.304 14.4877C293.321 15.5043 293.893 16.8827 293.894 18.3205V166.417C293.893 167.855 293.321 169.233 292.304 170.25C291.287 171.266 289.909 171.838 288.471 171.84V171.84Z" fill="white"/>
<path d="M229.16 246.785H77.3606C77.2051 246.788 77.0529 246.74 76.9276 246.647C76.8024 246.555 76.7112 246.424 76.6682 246.275C76.6414 246.173 76.6383 246.066 76.6591 245.963C76.6799 245.86 76.7241 245.763 76.7883 245.68C76.8525 245.596 76.935 245.529 77.0294 245.482C77.1238 245.436 77.2275 245.412 77.3328 245.412H229.104C229.268 245.406 229.429 245.456 229.561 245.553C229.693 245.651 229.788 245.79 229.831 245.948C229.853 246.049 229.852 246.153 229.829 246.253C229.806 246.353 229.76 246.447 229.696 246.527C229.631 246.607 229.55 246.672 229.457 246.717C229.364 246.761 229.263 246.784 229.16 246.785Z" fill="#CCCCCC"/>
<path d="M285.586 36.8403H220.361V86.6624H285.586V36.8403Z" fill="#F2F2F2"/>
<path d="M282.346 39.3159H223.602V84.1868H282.346V39.3159Z" fill="white"/>
<path d="M254.005 72.5986C254.013 72.5987 254.021 72.5986 254.029 72.5982C258.005 72.3902 261.753 70.6757 264.51 67.8034C267.267 64.9311 268.827 61.1166 268.872 57.1357C268.916 53.1547 267.443 49.3062 264.751 46.3728C262.058 43.4394 258.35 41.6414 254.379 41.3444C254.33 41.3405 254.281 41.3468 254.234 41.363C254.188 41.3791 254.145 41.4047 254.109 41.4381C254.073 41.4709 254.044 41.5109 254.024 41.5554C254.004 41.6 253.994 41.6481 253.993 41.6969L253.651 72.237C253.65 72.3319 253.687 72.4233 253.753 72.4911C253.82 72.5589 253.91 72.5976 254.005 72.5986V72.5986Z" fill="#3F3D56"/>
<path d="M241.722 46.3946C241.844 46.396 241.96 46.4457 242.046 46.5328L252.561 57.2849C252.604 57.3279 252.637 57.3788 252.659 57.4348C252.682 57.4908 252.693 57.5507 252.692 57.611L252.528 72.2245C252.528 72.2872 252.514 72.3492 252.489 72.4065C252.463 72.4637 252.426 72.5151 252.38 72.5573C252.333 72.6001 252.279 72.6328 252.219 72.6535C252.159 72.6742 252.096 72.6825 252.033 72.6778C249.109 72.459 246.304 71.4293 243.934 69.7045C241.563 67.9797 239.72 65.6281 238.613 62.9139C237.505 60.1997 237.177 57.2304 237.664 54.3398C238.152 51.4492 239.435 48.7517 241.372 46.5505C241.414 46.5031 241.465 46.4648 241.522 46.438C241.58 46.4112 241.642 46.3964 241.705 46.3947C241.711 46.3945 241.716 46.3945 241.722 46.3946Z" fill="#E6E6E6"/>
<path d="M252.415 41.2197C252.532 41.2212 252.645 41.2671 252.73 41.3483C252.775 41.3916 252.811 41.4438 252.835 41.5017C252.86 41.5596 252.872 41.6219 252.871 41.6847L252.723 54.8699C252.722 54.9607 252.694 55.0492 252.643 55.1241C252.591 55.199 252.519 55.257 252.435 55.2908C252.35 55.3246 252.258 55.3327 252.169 55.314C252.08 55.2953 251.999 55.2507 251.936 55.1858L242.759 45.8033C242.716 45.7586 242.682 45.7056 242.659 45.6474C242.637 45.5893 242.627 45.5271 242.629 45.4648C242.631 45.4024 242.646 45.3412 242.673 45.2849C242.7 45.2285 242.737 45.1781 242.784 45.1369C245.453 42.7882 248.836 41.4083 252.386 41.2203C252.396 41.2198 252.405 41.2197 252.415 41.2197Z" fill="#971004"/>
<path d="M247.688 78.9315C247.681 79.4877 247.51 80.0296 247.196 80.4887C246.882 80.9477 246.439 81.3033 245.922 81.5104C245.406 81.7175 244.84 81.7668 244.295 81.6522C243.751 81.5376 243.252 81.2641 242.864 80.8664C242.475 80.4686 242.212 79.9645 242.11 79.4177C242.007 78.871 242.069 78.3061 242.288 77.7946C242.507 77.2831 242.872 76.8479 243.338 76.544C243.804 76.2402 244.35 76.0813 244.906 76.0876C245.652 76.0968 246.364 76.4014 246.885 76.9345C247.407 77.4677 247.695 78.1859 247.688 78.9315Z" fill="#971004"/>
<path d="M255.725 79.0219C255.718 79.5781 255.547 80.12 255.233 80.579C254.919 81.0381 254.475 81.3936 253.959 81.6007C253.443 81.8078 252.876 81.8572 252.332 81.7426C251.788 81.6279 251.289 81.3545 250.9 80.9567C250.511 80.559 250.249 80.0549 250.147 79.5081C250.044 78.9613 250.106 78.3965 250.325 77.8849C250.544 77.3734 250.909 76.9382 251.375 76.6344C251.841 76.3305 252.387 76.1717 252.943 76.1779C253.689 76.1871 254.401 76.4917 254.922 77.0249C255.444 77.558 255.732 78.2762 255.725 79.0219V79.0219Z" fill="#3F3D56"/>
<path d="M263.761 79.1117C263.755 79.6679 263.584 80.2098 263.27 80.6689C262.956 81.1279 262.512 81.4834 261.996 81.6905C261.48 81.8976 260.913 81.947 260.369 81.8324C259.824 81.7177 259.326 81.4443 258.937 81.0465C258.548 80.6488 258.286 80.1447 258.184 79.5979C258.081 79.0511 258.143 78.4863 258.362 77.9748C258.581 77.4632 258.946 77.0281 259.412 76.7242C259.878 76.4204 260.424 76.2615 260.98 76.2678C261.726 76.277 262.438 76.5815 262.959 77.1147C263.48 77.6479 263.769 78.366 263.761 79.1117Z" fill="#E6E6E6"/>
<path d="M284.9 94.5034H219.674V144.326H284.9V94.5034Z" fill="#F2F2F2"/>
<path d="M281.659 96.979H222.915V141.85H281.659V96.979Z" fill="white"/>
<path d="M232.882 111.726C234.229 111.726 235.321 110.635 235.321 109.288C235.321 107.941 234.229 106.849 232.882 106.849C231.535 106.849 230.443 107.941 230.443 109.288C230.443 110.635 231.535 111.726 232.882 111.726Z" fill="#3F3D56"/>
<path d="M272.072 107.39C272.289 107.39 272.505 107.433 272.706 107.516C272.907 107.598 273.089 107.72 273.243 107.874C273.397 108.027 273.519 108.21 273.602 108.411C273.686 108.612 273.729 108.827 273.729 109.044C273.729 109.262 273.686 109.477 273.602 109.678C273.519 109.879 273.397 110.061 273.243 110.215C273.089 110.368 272.907 110.49 272.706 110.573C272.505 110.656 272.289 110.698 272.072 110.698H246.419C245.98 110.698 245.56 110.524 245.249 110.214C244.939 109.904 244.765 109.483 244.765 109.044C244.765 108.606 244.939 108.185 245.249 107.875C245.56 107.565 245.98 107.39 246.419 107.39H272.072ZM272.072 106.985H246.419C246.148 106.985 245.88 107.038 245.63 107.141C245.38 107.244 245.153 107.396 244.961 107.587C244.769 107.779 244.618 108.006 244.514 108.256C244.41 108.506 244.357 108.774 244.357 109.044C244.357 109.315 244.41 109.583 244.514 109.833C244.618 110.083 244.769 110.31 244.961 110.501C245.153 110.692 245.38 110.844 245.63 110.947C245.88 111.051 246.148 111.104 246.419 111.103H272.072C272.342 111.104 272.611 111.051 272.861 110.947C273.111 110.844 273.338 110.692 273.53 110.501C273.721 110.31 273.873 110.083 273.977 109.833C274.081 109.583 274.134 109.315 274.134 109.044C274.134 108.774 274.081 108.506 273.977 108.256C273.873 108.006 273.721 107.779 273.53 107.587C273.338 107.396 273.111 107.244 272.861 107.141C272.611 107.038 272.342 106.985 272.072 106.985V106.985Z" fill="#3F3D56"/>
<path d="M261.95 111.103H242.639C242.092 111.103 241.569 110.886 241.183 110.5C240.796 110.114 240.579 109.59 240.579 109.044C240.579 108.498 240.796 107.975 241.183 107.588C241.569 107.202 242.092 106.985 242.639 106.985H261.95C262.496 106.985 263.02 107.202 263.406 107.588C263.792 107.975 264.009 108.498 264.009 109.044C264.009 109.59 263.792 110.114 263.406 110.5C263.02 110.886 262.496 111.103 261.95 111.103V111.103Z" fill="#971004"/>
<path d="M232.882 121.853C234.229 121.853 235.321 120.761 235.321 119.414C235.321 118.067 234.229 116.976 232.882 116.976C231.535 116.976 230.443 118.067 230.443 119.414C230.443 120.761 231.535 121.853 232.882 121.853Z" fill="#3F3D56"/>
<path d="M272.072 117.516C272.289 117.516 272.505 117.559 272.706 117.642C272.907 117.724 273.089 117.846 273.243 118C273.397 118.153 273.519 118.336 273.603 118.537C273.686 118.738 273.729 118.953 273.729 119.17C273.729 119.388 273.686 119.603 273.603 119.804C273.519 120.005 273.397 120.187 273.243 120.341C273.089 120.494 272.907 120.616 272.706 120.699C272.505 120.782 272.289 120.824 272.072 120.824H246.419C245.98 120.824 245.56 120.65 245.249 120.34C244.939 120.03 244.765 119.609 244.765 119.17C244.765 118.732 244.939 118.311 245.249 118.001C245.56 117.691 245.98 117.516 246.419 117.516H272.072ZM272.072 117.111H246.419C245.873 117.111 245.349 117.328 244.963 117.714C244.577 118.1 244.36 118.624 244.36 119.17C244.36 119.716 244.577 120.24 244.963 120.626C245.349 121.012 245.873 121.229 246.419 121.229H272.072C272.618 121.229 273.142 121.012 273.528 120.626C273.914 120.24 274.131 119.716 274.131 119.17C274.131 118.624 273.914 118.1 273.528 117.714C273.142 117.328 272.618 117.111 272.072 117.111Z" fill="#3F3D56"/>
<path d="M269.242 121.229H242.639C242.092 121.229 241.569 121.012 241.182 120.626C240.796 120.24 240.579 119.716 240.579 119.17C240.579 118.624 240.796 118.1 241.182 117.714C241.569 117.328 242.092 117.111 242.639 117.111H269.242C269.788 117.111 270.312 117.328 270.698 117.714C271.084 118.1 271.301 118.624 271.301 119.17C271.301 119.716 271.084 120.24 270.698 120.626C270.312 121.012 269.788 121.229 269.242 121.229Z" fill="#971004"/>
<path d="M232.882 131.979C234.229 131.979 235.321 130.888 235.321 129.541C235.321 128.194 234.229 127.102 232.882 127.102C231.535 127.102 230.443 128.194 230.443 129.541C230.443 130.888 231.535 131.979 232.882 131.979Z" fill="#3F3D56"/>
<path d="M272.072 127.643C272.289 127.642 272.505 127.685 272.706 127.768C272.907 127.851 273.089 127.973 273.243 128.126C273.397 128.28 273.519 128.462 273.603 128.663C273.686 128.864 273.729 129.079 273.729 129.297C273.729 129.514 273.686 129.729 273.603 129.93C273.519 130.131 273.397 130.314 273.243 130.467C273.089 130.621 272.907 130.742 272.706 130.825C272.505 130.908 272.289 130.951 272.072 130.951H246.419C245.98 130.951 245.56 130.776 245.249 130.466C244.939 130.156 244.765 129.735 244.765 129.297C244.765 128.858 244.939 128.437 245.249 128.127C245.56 127.817 245.98 127.643 246.419 127.643H272.072ZM272.072 127.238H246.419C245.873 127.238 245.349 127.455 244.963 127.841C244.577 128.227 244.36 128.751 244.36 129.297C244.36 129.843 244.577 130.366 244.963 130.753C245.349 131.139 245.873 131.356 246.419 131.356H272.072C272.618 131.356 273.142 131.139 273.528 130.753C273.914 130.366 274.131 129.843 274.131 129.297C274.131 128.751 273.914 128.227 273.528 127.841C273.142 127.455 272.618 127.238 272.072 127.238Z" fill="#3F3D56"/>
<path d="M253.442 131.356H242.639C242.368 131.356 242.1 131.303 241.85 131.2C241.599 131.096 241.372 130.945 241.18 130.754C240.989 130.562 240.837 130.335 240.733 130.085C240.63 129.835 240.576 129.567 240.576 129.297C240.576 129.026 240.63 128.758 240.733 128.508C240.837 128.258 240.989 128.031 241.18 127.84C241.372 127.649 241.599 127.497 241.85 127.394C242.1 127.29 242.368 127.237 242.639 127.238H253.442C253.988 127.239 254.511 127.456 254.896 127.842C255.282 128.228 255.498 128.751 255.498 129.297C255.498 129.842 255.282 130.365 254.896 130.751C254.511 131.138 253.988 131.355 253.442 131.356V131.356Z" fill="#971004"/>
<path d="M205.256 45.6548H23.0269V139.031H205.256V45.6548Z" fill="#F2F2F2"/>
<path d="M199.182 50.2944H29.1012V134.391H199.182V50.2944Z" fill="white"/>
<path d="M178.088 121.561H54.1026C53.9997 121.561 53.901 121.52 53.8283 121.448C53.7555 121.375 53.7146 121.276 53.7146 121.173V61.7576C53.7146 61.6547 53.7555 61.556 53.8282 61.4833C53.901 61.4105 53.9997 61.3696 54.1026 61.3696C54.2055 61.3696 54.3042 61.4105 54.377 61.4833C54.4498 61.556 54.4906 61.6547 54.4906 61.7576V120.785H178.088C178.191 120.785 178.29 120.826 178.362 120.899C178.435 120.972 178.476 121.071 178.476 121.173C178.476 121.276 178.435 121.375 178.362 121.448C178.29 121.521 178.191 121.561 178.088 121.561V121.561Z" fill="#3F3D56"/>
<path d="M80.593 117.294H69.316C69.0107 117.294 68.7179 117.172 68.502 116.956C68.286 116.74 68.1645 116.448 68.1642 116.142V100.6C68.1646 100.294 68.286 100.002 68.502 99.7859C68.7179 99.57 69.0107 99.4486 69.316 99.4482H80.593C80.8983 99.4486 81.1911 99.57 81.407 99.7859C81.623 100.002 81.7444 100.294 81.7448 100.6V116.142C81.7444 116.448 81.623 116.74 81.407 116.956C81.1911 117.172 80.8983 117.294 80.593 117.294V117.294Z" fill="#971004"/>
<path d="M101.158 117.294H89.881C89.5756 117.294 89.2828 117.172 89.0669 116.956C88.851 116.74 88.7295 116.448 88.7291 116.142V85.8576C88.7295 85.5523 88.851 85.2596 89.0669 85.0437C89.2828 84.8278 89.5756 84.7064 89.881 84.7061H101.158C101.463 84.7064 101.756 84.8278 101.972 85.0437C102.188 85.2596 102.309 85.5523 102.31 85.8576V116.142C102.309 116.448 102.188 116.74 101.972 116.956C101.756 117.172 101.463 117.294 101.158 117.294V117.294Z" fill="#971004"/>
<path d="M121.723 117.294H110.446C110.141 117.294 109.848 117.172 109.632 116.956C109.416 116.74 109.294 116.448 109.294 116.142V100.6C109.294 100.294 109.416 100.002 109.632 99.7859C109.848 99.57 110.141 99.4486 110.446 99.4482H121.723C122.028 99.4486 122.321 99.57 122.537 99.7859C122.753 100.002 122.874 100.294 122.875 100.6V116.142C122.874 116.448 122.753 116.74 122.537 116.956C122.321 117.172 122.028 117.294 121.723 117.294V117.294Z" fill="#971004"/>
<path d="M142.288 117.294H131.011C130.712 117.3 130.424 117.188 130.208 116.982C129.992 116.776 129.866 116.493 129.859 116.195V79.9863C129.866 79.688 129.992 79.4048 130.208 79.1987C130.424 78.9927 130.712 78.8806 131.011 78.887H142.288C142.586 78.8806 142.875 78.9927 143.091 79.1987C143.307 79.4048 143.432 79.688 143.44 79.9863V116.195C143.432 116.493 143.307 116.776 143.091 116.982C142.875 117.188 142.586 117.3 142.288 117.294V117.294Z" fill="#971004"/>
<path d="M162.853 117.294H151.576C151.27 117.293 150.978 117.172 150.762 116.956C150.546 116.74 150.424 116.448 150.424 116.142V69.5636C150.424 69.2583 150.546 68.9656 150.762 68.7497C150.978 68.5339 151.27 68.4124 151.576 68.4121H162.853C163.158 68.4124 163.451 68.5339 163.667 68.7497C163.883 68.9656 164.004 69.2583 164.005 69.5636V116.142C164.004 116.448 163.883 116.74 163.667 116.956C163.451 117.172 163.158 117.293 162.853 117.294V117.294Z" fill="#971004"/>
<path d="M74.9545 94.7926C76.2402 94.7926 77.2826 93.7505 77.2826 92.4649C77.2826 91.1794 76.2402 90.1372 74.9545 90.1372C73.6687 90.1372 72.6263 91.1794 72.6263 92.4649C72.6263 93.7505 73.6687 94.7926 74.9545 94.7926Z" fill="#3F3D56"/>
<path d="M95.5194 79.6627C96.8052 79.6627 97.8475 78.6206 97.8475 77.335C97.8475 76.0495 96.8052 75.0073 95.5194 75.0073C94.2336 75.0073 93.1913 76.0495 93.1913 77.335C93.1913 78.6206 94.2336 79.6627 95.5194 79.6627Z" fill="#3F3D56"/>
<path d="M116.084 94.7926C117.37 94.7926 118.412 93.7505 118.412 92.4649C118.412 91.1794 117.37 90.1372 116.084 90.1372C114.799 90.1372 113.756 91.1794 113.756 92.4649C113.756 93.7505 114.799 94.7926 116.084 94.7926Z" fill="#3F3D56"/>
<path d="M136.649 72.2916C137.935 72.2916 138.977 71.2495 138.977 69.9639C138.977 68.6784 137.935 67.6362 136.649 67.6362C135.363 67.6362 134.321 68.6784 134.321 69.9639C134.321 71.2495 135.363 72.2916 136.649 72.2916Z" fill="#3F3D56"/>
<path d="M157.214 63.757C158.5 63.757 159.542 62.7148 159.542 61.4293C159.542 60.1437 158.5 59.1016 157.214 59.1016C155.928 59.1016 154.886 60.1437 154.886 61.4293C154.886 62.7148 155.928 63.757 157.214 63.757Z" fill="#3F3D56"/>
<path d="M116.133 92.9865L95.5196 77.5492L75.1871 92.7756L74.7219 92.1549L95.5196 76.5795L116.035 91.9435L136.423 69.6374L136.504 69.6041L157.069 61.3198L157.359 62.0394L136.876 70.2909L116.133 92.9865Z" fill="#3F3D56"/>
<path d="M423.55 284H252.159C252.04 284 251.926 283.953 251.841 283.868C251.757 283.784 251.709 283.67 251.709 283.55C251.709 283.431 251.757 283.317 251.841 283.232C251.926 283.148 252.04 283.101 252.159 283.101H423.55C423.669 283.101 423.784 283.148 423.868 283.232C423.953 283.317 424 283.431 424 283.55C424 283.67 423.953 283.784 423.868 283.868C423.784 283.953 423.669 284 423.55 284Z" fill="#CCCCCC"/>
</g>
<defs>
<clipPath id="clip0_810_712">
<rect width="424" height="284" fill="white"/>
</clipPath>
</defs>
</svg>
