<svg width="404" height="333" viewBox="0 0 404 333" fill="none" xmlns="http://www.w3.org/2000/svg">
<path d="M369.89 258.293C370.013 271.266 288.552 272.455 287 258.294C286.877 245.321 368.338 244.132 369.89 258.293Z" fill="#E6E6E6"/>
<path d="M306.155 213.255L300.101 216.569L303.954 229.273L310.007 229.825L313.31 222.645L306.155 213.255Z" fill="#9F616A"/>
<path d="M324.867 238.663V244.738L334.224 244.186L334.093 239.182L324.867 238.663Z" fill="#9F616A"/>
<path d="M303.954 140.346L307.256 181.772L317.713 242.529L334.224 240.319L328.72 192.266L330.922 148.079L303.954 140.346Z" fill="#2F2E41"/>
<path d="M347.983 109.416L308.356 109.968L303.953 140.346L330.921 153.05L337.526 177.353L303.953 213.255L317.162 229.825C317.162 229.825 335.875 204.417 349.634 190.057C363.393 175.696 356.789 132.061 356.789 132.061L347.983 109.416Z" fill="#2F2E41"/>
<path d="M324.317 30.9837C331.004 30.9837 336.425 25.5434 336.425 18.8323C336.425 12.1213 331.004 6.68091 324.317 6.68091C317.63 6.68091 312.209 12.1213 312.209 18.8323C312.209 25.5434 317.63 30.9837 324.317 30.9837Z" fill="#9F616A"/>
<path d="M319.914 27.1174V39.2688L328.17 52.5249C328.17 52.5249 340.828 43.1352 338.076 40.9258C335.324 38.7164 334.774 21.594 334.774 21.594L319.914 27.1174Z" fill="#9F616A"/>
<path d="M319.914 37.0593L311.658 47.0011L314.961 116.043L340.828 115.491L345.231 55.2864L339.728 39.8208L335.952 34.666L329.27 44.7918L319.914 37.0593Z" fill="#D0CDE1"/>
<path d="M306.705 72.9614L300.651 96.1596L306.705 119.358L296.799 132.614L287.993 90.6362C287.993 90.6362 294.597 56.3913 295.147 52.5249C295.698 48.6585 296.799 48.1062 296.799 48.1062L301.202 48.6585L306.705 72.9614Z" fill="#2F2E41"/>
<path d="M350.734 81.7983L354.587 88.9792L355.688 101.13L353.487 114.939L361.192 127.643L368.897 92.8452L360.641 48.1057H357.339L350.734 81.7983Z" fill="#2F2E41"/>
<path d="M303.953 212.703C303.953 212.703 296.248 214.912 293.496 215.464C290.745 216.017 295.148 226.511 295.148 226.511C295.148 226.511 297.899 240.872 298.45 243.633C299 246.395 302.853 255.785 307.806 256.89C312.759 257.994 309.457 237.558 309.457 237.558C309.457 237.558 311.659 230.93 311.659 228.72C311.659 226.511 308.356 227.616 308.356 227.616C299.551 226.511 303.953 212.703 303.953 212.703Z" fill="#2F2E41"/>
<path d="M322.116 255.233C322.666 258.547 321.565 258.547 330.371 259.651C339.177 260.756 336.976 253.576 336.976 253.576C336.607 250.191 335.869 246.857 334.774 243.634C333.123 239.215 324.317 244.738 324.317 244.738C324.317 244.738 321.565 251.919 322.116 255.233Z" fill="#2F2E41"/>
<path d="M334.788 21.9797L335.075 26.8918C335.075 26.8918 338.627 18.8322 339.177 10.5472C339.727 2.26212 330.371 0.605101 324.867 0.0527662C319.364 -0.499569 310.008 3.36678 310.008 7.78549C310.008 12.2042 319.914 11.0995 323.767 9.99485C327.619 8.89018 329.27 18.2799 329.27 18.2799L331.472 18.8323L334.788 21.9797Z" fill="#2F2E41"/>
<path d="M316.666 40.9707L319.914 37.0593L329.27 44.7918L319.914 51.4199L316.666 40.9707Z" fill="#D0CDE1"/>
<path d="M339.728 39.821L335.875 34.8501L329.27 44.792L337.526 50.8679L339.728 39.821Z" fill="#D0CDE1"/>
<path d="M305.054 80.6941L307.256 101.683L302.853 114.387L300.101 126.538C300.101 126.538 300.101 138.137 311.108 138.69C322.116 139.242 331.472 103.892 331.472 103.892C331.472 103.892 333.123 111.625 334.224 116.044C335.324 120.462 354.037 138.137 354.037 138.137C354.037 138.137 358.44 137.585 362.292 128.747C366.145 119.91 354.587 111.625 354.587 111.625L351.285 100.026L352.386 85.6652L360.091 48.1062L337.251 36.231L339.727 67.9904L331.472 92.8455L319.089 37.888L314.961 40.9258L297.349 48.1062L305.054 80.6941Z" fill="#2F2E41"/>
<path d="M121.654 228.762C120.566 228.754 119.465 228.746 118.384 228.713L118.417 227.619C119.487 227.652 120.581 227.667 121.654 227.668C122.732 227.668 123.83 227.65 124.919 227.615L124.954 228.708C123.853 228.744 122.743 228.762 121.654 228.762ZM111.828 228.3C109.656 228.094 107.464 227.814 105.311 227.469L105.483 226.389C107.613 226.73 109.782 227.007 111.93 227.211L111.828 228.3ZM131.51 228.288L131.406 227.199C133.553 226.993 135.722 226.713 137.853 226.369L138.026 227.45C135.873 227.798 133.68 228.08 131.51 228.288H131.51ZM98.8597 226.22C96.7337 225.737 94.5948 225.177 92.5024 224.556L92.8115 223.506C94.8815 224.121 96.9976 224.674 99.1009 225.153L98.8597 226.22ZM144.475 226.193L144.233 225.126C146.341 224.644 148.457 224.087 150.521 223.472L150.831 224.522C148.745 225.144 146.606 225.706 144.475 226.193H144.475ZM86.2644 222.485C84.2131 221.728 82.1606 220.896 80.1641 220.009L80.6056 219.009C82.5805 219.885 84.6108 220.709 86.6404 221.457L86.2644 222.485ZM157.066 222.442L156.689 221.415C158.706 220.669 160.729 219.845 162.703 218.967L163.145 219.967C161.15 220.856 159.105 221.688 157.066 222.442H157.066ZM74.2377 217.144C72.3072 216.133 70.3794 215.043 68.5083 213.905L69.0738 212.968C70.9252 214.095 72.8323 215.173 74.7422 216.174L74.2377 217.144ZM169.055 217.104L168.55 216.134C170.456 215.134 172.358 214.056 174.205 212.93L174.771 213.866C172.905 215.004 170.982 216.093 169.055 217.104H169.055ZM62.9991 210.303C61.211 209.051 59.439 207.723 57.7316 206.357L58.4117 205.501C60.1009 206.853 61.8544 208.167 63.6232 209.406L62.9991 210.303ZM180.271 210.264L179.646 209.368C181.415 208.127 183.166 206.813 184.851 205.463L185.531 206.318C183.828 207.683 182.059 209.011 180.271 210.264V210.264ZM52.7265 202.081C51.1102 200.608 49.5211 199.066 48.0042 197.496L48.787 196.734C50.288 198.287 51.8603 199.813 53.4598 201.271L52.7265 202.081ZM190.532 202.043L189.798 201.233C191.393 199.778 192.964 198.251 194.468 196.694L195.25 197.455C193.732 199.029 192.144 200.573 190.532 202.043V202.043ZM43.583 192.62C42.1677 190.954 40.7879 189.222 39.4813 187.471L40.3544 186.815C41.6472 188.547 43.0123 190.261 44.4127 191.909L43.583 192.62ZM199.671 192.574L198.841 191.864C200.241 190.216 201.606 188.499 202.899 186.765L203.772 187.42C202.466 189.173 201.086 190.908 199.671 192.574V192.574ZM35.7159 182.071C34.5228 180.237 33.3746 178.344 32.3031 176.443L33.2527 175.904C34.3124 177.785 35.4486 179.659 36.6293 181.472L35.7159 182.071ZM207.539 182.012L206.625 181.414C207.806 179.597 208.942 177.72 210.002 175.835L210.953 176.372C209.881 178.278 208.732 180.175 207.539 182.012V182.012ZM29.2575 170.608C28.3085 168.638 27.412 166.613 26.5929 164.59L27.6031 164.178C28.4137 166.179 29.3006 168.182 30.2395 170.131L29.2575 170.608ZM213.999 170.522L213.017 170.046C213.956 168.095 214.843 166.086 215.654 164.076L216.665 164.486C215.845 166.518 214.948 168.549 213.999 170.522V170.522ZM24.3163 158.404C23.6264 156.325 22.9961 154.199 22.4428 152.083L23.4977 151.806C24.0449 153.898 24.6686 156.002 25.351 158.058L24.3163 158.404ZM218.938 158.288L217.902 157.944C218.581 155.89 219.202 153.786 219.748 151.689L220.804 151.966C220.251 154.086 219.623 156.213 218.938 158.288V158.288ZM20.9796 145.656C20.5629 143.509 20.2103 141.319 19.9316 139.148L21.0132 139.008C21.289 141.156 21.6378 143.322 22.05 145.447L20.9796 145.656ZM222.259 145.536L221.189 145.329C221.598 143.205 221.944 141.037 222.217 138.887L223.3 139.026C223.023 141.199 222.673 143.39 222.259 145.536V145.536ZM19.301 132.586C19.1612 130.404 19.0891 128.187 19.0867 125.995L20.1773 125.994C20.1797 128.162 20.2511 130.356 20.3895 132.515L19.301 132.586ZM223.923 132.463L222.834 132.394C222.97 130.237 223.039 128.043 223.039 125.874L223.038 125.634H224.129L224.129 125.87C224.129 128.066 224.06 130.283 223.923 132.463ZM20.3744 119.473L19.2858 119.406C19.4211 117.22 19.628 115.012 19.9009 112.842L20.9831 112.979C20.7128 115.126 20.508 117.311 20.3744 119.473ZM222.819 119.114C222.678 116.951 222.465 114.767 222.188 112.622L223.269 112.481C223.549 114.648 223.765 116.856 223.908 119.043L222.819 119.114ZM22.0045 106.538L20.9336 106.331C21.3449 104.182 21.8323 102.019 22.3813 99.8997L23.4368 100.175C22.8936 102.272 22.4116 104.412 22.0045 106.538ZM221.142 106.185C220.727 104.058 220.237 101.919 219.687 99.827L220.742 99.548C221.298 101.663 221.792 103.824 222.213 105.974L221.142 106.185ZM25.2757 93.9181L24.2398 93.575C24.9244 91.4951 25.6865 89.4089 26.5053 87.374L27.5166 87.7839C26.7066 89.7969 25.9528 91.8607 25.2757 93.9181ZM217.828 93.5768C217.143 91.5224 216.383 89.4645 215.569 87.4601L216.578 87.0469C217.402 89.073 218.17 91.1531 218.862 93.2295L217.828 93.5768ZM30.1474 81.8087L29.1643 81.3342C30.1104 79.3604 31.1334 77.391 32.2046 75.4808L33.1552 76.018C32.0952 77.9075 31.0833 79.8559 30.1474 81.8087ZM212.926 81.5103C211.986 79.5667 210.971 77.6256 209.906 75.7409L210.855 75.2011C211.931 77.1058 212.958 79.0681 213.907 81.033L212.926 81.5103ZM36.5262 70.4338L35.6118 69.8368C36.8013 68.002 38.0663 66.1809 39.3716 64.4244L40.246 65.0786C38.9546 66.8166 37.7029 68.6183 36.5262 70.4338ZM206.522 70.1762C205.342 68.3673 204.087 66.5713 202.791 64.8381L203.663 64.1812C204.973 65.9332 206.242 67.7484 207.435 69.5765L206.522 70.1762ZM44.2982 59.9743L43.4674 59.2656C44.88 57.5979 46.365 55.9539 47.8812 54.3797L48.6656 55.1402C47.1654 56.6978 45.6961 58.3244 44.2982 59.9743ZM198.726 59.7488C197.324 58.1035 195.85 56.4817 194.346 54.9285L195.128 54.1659C196.648 55.7353 198.138 57.3745 199.555 59.0374L198.726 59.7488ZM53.3299 50.5955L52.5955 49.7863C54.2094 48.311 55.8901 46.8704 57.5905 45.5048L58.2722 46.3594C56.5896 47.7105 54.9267 49.1359 53.3299 50.5955V50.5955ZM189.668 50.3969C188.068 48.944 186.401 47.5229 184.711 46.1734L185.39 45.3167C187.098 46.6809 188.784 48.117 190.399 49.5856L189.668 50.3969ZM63.4722 42.4486L62.8465 41.5523C64.6311 40.2971 66.4801 39.0837 68.3421 37.9453L68.9095 38.88C67.0674 40.0064 65.2379 41.207 63.4722 42.4486ZM179.495 42.2743C177.72 41.0341 175.884 39.8375 174.04 38.7176L174.605 37.7812C176.469 38.9129 178.324 40.1224 180.118 41.3759L179.495 42.2743ZM74.5609 35.6691L74.0544 34.6996C75.9825 33.6846 77.97 32.7189 79.9609 31.8293L80.4045 32.8293C78.4346 33.7092 76.4687 34.6648 74.5609 35.6691ZM168.368 35.5189C166.453 34.5184 164.479 33.5673 162.502 32.6919L162.942 31.6903C164.941 32.5751 166.936 33.5366 168.872 34.5478L168.368 35.5189ZM86.4156 30.374L86.037 29.3473C88.082 28.5881 90.1789 27.8858 92.2696 27.2603L92.5812 28.3094C90.5128 28.928 88.4385 29.6228 86.4156 30.374H86.4156ZM156.464 30.2497C154.437 29.5055 152.36 28.8182 150.291 28.2073L150.599 27.1571C152.69 27.7746 154.789 28.4695 156.839 29.222L156.464 30.2497ZM98.8665 26.6486L98.6232 25.5818C100.745 25.0939 102.914 24.6687 105.071 24.3173L105.246 25.398C103.112 25.7454 100.966 26.166 98.8665 26.6486ZM143.999 26.569C141.896 26.0933 139.748 25.6802 137.616 25.3408L137.787 24.2596C139.942 24.6027 142.113 25.0204 144.239 25.5011L143.999 26.569ZM111.692 24.5602L111.586 23.471C113.751 23.2602 115.957 23.1161 118.141 23.0432L118.177 24.1372C116.016 24.2094 113.834 24.3518 111.692 24.5602V24.5602ZM131.167 24.5263C129.021 24.3251 126.838 24.1904 124.68 24.126L124.712 23.032C126.894 23.0972 129.1 23.2332 131.268 23.4366L131.167 24.5263Z" fill="#D0CDE1"/>
<path d="M117.791 51.4441C131.946 51.4441 143.421 39.928 143.421 25.7221C143.421 11.5162 131.946 0 117.791 0C103.635 0 92.1602 11.5162 92.1602 25.7221C92.1602 39.928 103.635 51.4441 117.791 51.4441Z" fill="#971004"/>
<path d="M217.04 121.496C231.195 121.496 242.67 109.98 242.67 95.7736C242.67 81.5677 231.195 70.0515 217.04 70.0515C202.885 70.0515 191.41 81.5677 191.41 95.7736C191.41 109.98 202.885 121.496 217.04 121.496Z" fill="#971004"/>
<path d="M185.956 228.762C200.112 228.762 211.587 217.246 211.587 203.04C211.587 188.834 200.112 177.318 185.956 177.318C171.801 177.318 160.326 188.834 160.326 203.04C160.326 217.246 171.801 228.762 185.956 228.762Z" fill="#971004"/>
<path d="M62.7126 233.14C76.8678 233.14 88.3429 221.624 88.3429 207.418C88.3429 193.212 76.8678 181.696 62.7126 181.696C48.5573 181.696 37.0822 193.212 37.0822 207.418C37.0822 221.624 48.5573 233.14 62.7126 233.14Z" fill="#971004"/>
<path d="M25.6304 121.496C39.7856 121.496 51.2607 109.98 51.2607 95.7736C51.2607 81.5677 39.7856 70.0515 25.6304 70.0515C11.4751 70.0515 0 81.5677 0 95.7736C0 109.98 11.4751 121.496 25.6304 121.496Z" fill="#971004"/>
<path d="M128.774 23.6714H119.834C119.021 23.6714 118.241 23.3473 117.667 22.7704C117.092 22.1935 116.769 21.4111 116.769 20.5953V11.6233C116.769 11.5896 116.762 11.5563 116.749 11.5252C116.737 11.4941 116.718 11.4658 116.694 11.442C116.67 11.4182 116.642 11.3993 116.611 11.3865C116.58 11.3736 116.547 11.3669 116.513 11.3669H110.639C109.555 11.3669 108.515 11.7991 107.749 12.5682C106.982 13.3374 106.552 14.3806 106.552 15.4684V35.9758C106.552 37.0636 106.982 38.1068 107.749 38.876C108.515 39.6451 109.555 40.0773 110.639 40.0773H124.943C126.026 40.0773 127.066 39.6451 127.832 38.876C128.599 38.1068 129.029 37.0636 129.029 35.9758V23.9277C129.029 23.894 129.023 23.8607 129.01 23.8296C128.997 23.7985 128.978 23.7702 128.955 23.7464C128.931 23.7226 128.903 23.7038 128.872 23.6909C128.841 23.678 128.808 23.6714 128.774 23.6714V23.6714ZM122.899 33.925H112.682C112.411 33.925 112.151 33.817 111.96 33.6247C111.768 33.4324 111.66 33.1716 111.66 32.8997C111.66 32.6277 111.768 32.3669 111.96 32.1746C112.151 31.9823 112.411 31.8743 112.682 31.8743H122.899C123.17 31.8743 123.43 31.9823 123.622 32.1746C123.813 32.3669 123.921 32.6277 123.921 32.8997C123.921 33.1716 123.813 33.4324 123.622 33.6247C123.43 33.817 123.17 33.925 122.899 33.925ZM122.899 28.7982H112.682C112.411 28.7982 112.151 28.6902 111.96 28.4979C111.768 28.3056 111.66 28.0448 111.66 27.7728C111.66 27.5009 111.768 27.2401 111.96 27.0478C112.151 26.8555 112.411 26.7475 112.682 26.7475H122.899C123.17 26.7475 123.43 26.8555 123.622 27.0478C123.813 27.2401 123.921 27.5009 123.921 27.7728C123.921 28.0448 123.813 28.3056 123.622 28.4979C123.43 28.6902 123.17 28.7982 122.899 28.7982Z" fill="white"/>
<path d="M128.213 21.4021L119.03 12.186C119.012 12.1681 118.989 12.156 118.965 12.1511C118.94 12.1462 118.914 12.1488 118.891 12.1584C118.868 12.1681 118.848 12.1844 118.834 12.2054C118.82 12.2264 118.812 12.251 118.812 12.2763V20.5953C118.812 20.8672 118.92 21.128 119.112 21.3203C119.303 21.5126 119.563 21.6206 119.834 21.6206H128.123C128.148 21.6205 128.173 21.613 128.194 21.5989C128.215 21.5848 128.231 21.5648 128.241 21.5414C128.25 21.5181 128.253 21.4924 128.248 21.4676C128.243 21.4428 128.231 21.42 128.213 21.4021L128.213 21.4021Z" fill="white"/>
<path d="M189.664 197.973C189.349 197.973 189.045 198.083 188.802 198.283C188.559 198.483 188.393 198.762 188.332 199.071C188.271 199.38 188.318 199.701 188.467 199.979C188.615 200.258 188.855 200.475 189.145 200.596C189.435 200.717 189.758 200.732 190.059 200.641C190.36 200.549 190.62 200.355 190.794 200.093C190.968 199.831 191.047 199.516 191.016 199.202C190.985 198.888 190.847 198.595 190.624 198.372C190.498 198.245 190.348 198.145 190.183 198.077C190.019 198.008 189.842 197.973 189.664 197.973Z" fill="white"/>
<path d="M197.226 192.522V192.517C197.182 192.328 197.088 192.154 196.952 192.016C196.816 191.878 196.644 191.781 196.456 191.736C194.939 191.365 192.553 191.76 189.909 192.823C187.367 193.815 185.041 195.293 183.06 197.175C182.519 197.715 182.017 198.293 181.556 198.903C180.539 198.833 179.52 198.997 178.576 199.384C175.637 200.681 174.798 204.003 174.575 205.366C174.542 205.56 174.555 205.759 174.612 205.947C174.668 206.135 174.767 206.307 174.901 206.451C175.035 206.594 175.2 206.704 175.384 206.773C175.567 206.842 175.764 206.867 175.958 206.848H175.965L179.238 206.489C179.242 206.531 179.247 206.569 179.251 206.604C179.293 207.005 179.47 207.378 179.754 207.663L181.352 209.267C181.635 209.552 182.007 209.731 182.406 209.773L182.515 209.785L182.159 213.066V213.072C182.142 213.239 182.158 213.408 182.205 213.568C182.253 213.729 182.332 213.879 182.437 214.009C182.543 214.139 182.672 214.247 182.819 214.327C182.966 214.407 183.127 214.457 183.294 214.474C183.333 214.478 183.372 214.48 183.411 214.481C183.482 214.481 183.553 214.475 183.623 214.463C184.989 214.243 188.297 213.411 189.587 210.446C189.969 209.502 190.133 208.483 190.068 207.466C190.679 207.005 191.256 206.501 191.795 205.957C193.67 203.988 195.145 201.672 196.137 199.137C197.19 196.514 197.586 194.102 197.226 192.522ZM191.777 201.454C191.359 201.874 190.826 202.16 190.246 202.276C189.666 202.392 189.065 202.333 188.518 202.106C187.971 201.879 187.504 201.495 187.175 201.001C186.846 200.508 186.67 199.928 186.67 199.334C186.67 198.74 186.845 198.16 187.173 197.666C187.502 197.172 187.969 196.787 188.515 196.56C189.061 196.332 189.663 196.273 190.243 196.388C190.823 196.504 191.356 196.789 191.775 197.209L191.777 197.211C192.338 197.765 192.656 198.52 192.662 199.31C192.668 200.099 192.361 200.859 191.809 201.422L191.777 201.454Z" fill="white"/>
<path d="M181.169 209.702C180.972 209.678 180.773 209.726 180.609 209.839C180.284 210.062 179.957 210.282 179.627 210.497C179.484 210.59 179.314 210.631 179.145 210.615C178.975 210.599 178.816 210.526 178.693 210.408C178.569 210.29 178.489 210.134 178.465 209.965C178.44 209.796 178.473 209.624 178.558 209.476L179.177 208.403C179.265 208.274 179.314 208.121 179.319 207.964C179.323 207.807 179.282 207.652 179.2 207.517C179.119 207.383 179 207.275 178.859 207.207C178.718 207.138 178.561 207.112 178.405 207.131C177.719 207.218 177.081 207.532 176.592 208.023C176.406 208.21 175.839 208.779 175.534 210.947C175.448 211.57 175.393 212.197 175.371 212.825C175.368 212.933 175.386 213.039 175.425 213.14C175.463 213.24 175.521 213.331 175.594 213.409C175.668 213.487 175.756 213.549 175.854 213.593C175.952 213.637 176.057 213.66 176.164 213.663C176.171 213.663 176.178 213.663 176.185 213.663H176.205C176.832 213.641 177.457 213.587 178.078 213.5C180.239 213.194 180.806 212.625 180.993 212.438C181.484 211.947 181.796 211.303 181.878 210.612C181.904 210.397 181.844 210.181 181.711 210.01C181.578 209.839 181.383 209.729 181.169 209.702V209.702Z" fill="white"/>
<path d="M53.8918 221.396H52.0348C51.6654 221.396 51.3112 221.249 51.05 220.986C50.7888 220.724 50.642 220.369 50.642 219.998V211.612C50.642 211.241 50.7888 210.885 51.05 210.623C51.3112 210.361 51.6654 210.214 52.0348 210.214H53.8918C54.2612 210.214 54.6154 210.361 54.8766 210.623C55.1378 210.885 55.2846 211.241 55.2846 211.612V219.998C55.2846 220.369 55.1378 220.724 54.8766 220.986C54.6154 221.249 54.2612 221.396 53.8918 221.396V221.396Z" fill="white"/>
<path d="M66.8908 221.396H65.0338C64.6644 221.396 64.3102 221.249 64.049 220.987C63.7878 220.724 63.6411 220.369 63.6411 219.998V206.021C63.6411 205.65 63.7878 205.295 64.049 205.032C64.3102 204.77 64.6644 204.623 65.0338 204.623H66.8908C67.2602 204.623 67.6145 204.77 67.8757 205.032C68.1369 205.295 68.2836 205.65 68.2836 206.021V219.998C68.2836 220.369 68.1369 220.724 67.8757 220.987C67.6145 221.249 67.2602 221.396 66.8908 221.396V221.396Z" fill="white"/>
<path d="M73.3904 221.396H71.5334C71.164 221.396 70.8097 221.248 70.5486 220.986C70.2874 220.724 70.1406 220.369 70.1406 219.998V199.498C70.1406 199.127 70.2874 198.772 70.5486 198.509C70.8097 198.247 71.164 198.1 71.5334 198.1H73.3904C73.7598 198.1 74.114 198.247 74.3752 198.509C74.6364 198.772 74.7832 199.127 74.7832 199.498V219.998C74.7832 220.369 74.6364 220.724 74.3752 220.986C74.114 221.248 73.7598 221.396 73.3904 221.396V221.396Z" fill="white"/>
<path d="M60.3913 221.396H58.5344C58.165 221.396 57.8107 221.248 57.5495 220.986C57.2883 220.724 57.1416 220.369 57.1416 219.998V194.839C57.1416 194.468 57.2883 194.112 57.5495 193.85C57.8107 193.588 58.165 193.441 58.5344 193.441H60.3914C60.7607 193.441 61.115 193.588 61.3762 193.85C61.6374 194.112 61.7841 194.468 61.7841 194.839V219.998C61.7841 220.182 61.7481 220.363 61.6781 220.533C61.6081 220.702 61.5055 220.857 61.3762 220.986C61.2469 221.116 61.0933 221.219 60.9243 221.289C60.7554 221.36 60.5742 221.396 60.3913 221.396V221.396Z" fill="white"/>
<path d="M218.268 95.1001L216.941 93.7681C216.637 93.4631 216.225 93.2912 215.796 93.29C215.366 93.2889 214.953 93.4586 214.647 93.762L205.423 102.305C205.085 102.606 204.878 103.028 204.847 103.481C204.837 103.706 204.873 103.93 204.954 104.14C205.034 104.351 205.157 104.542 205.315 104.702L207.296 106.713L207.3 106.716C207.606 107.023 208.021 107.195 208.453 107.197H208.513C208.737 107.184 208.956 107.127 209.158 107.029C209.36 106.932 209.541 106.795 209.69 106.627L218.262 97.4122C218.569 97.1075 218.742 96.6932 218.744 96.2604C218.745 95.8276 218.576 95.4118 218.272 95.1045L218.268 95.1001Z" fill="white"/>
<path d="M228.931 92.408L228.915 92.3922L227.173 90.6625C227.071 90.5604 226.95 90.4797 226.817 90.4249C226.684 90.3701 226.541 90.3423 226.397 90.3432C226.164 90.3434 225.936 90.4173 225.747 90.5544C225.747 90.5324 225.75 90.511 225.752 90.4921C225.822 90.0455 225.728 89.5884 225.487 89.206C225.104 88.6871 224.683 88.1972 224.227 87.7404L224.223 87.7363C222.95 86.5107 221.454 85.5422 219.817 84.8837C218.961 84.5312 218.045 84.3502 217.12 84.3508C215.922 84.3399 214.758 84.749 213.829 85.5073C213.565 85.7608 213.324 86.0376 213.109 86.3345C213.006 86.4768 212.952 86.6485 212.954 86.8241C212.957 86.9998 213.015 87.17 213.122 87.3094C213.228 87.4489 213.377 87.5501 213.545 87.5981C213.714 87.6461 213.893 87.6382 214.057 87.5757C214.199 87.5223 214.345 87.4775 214.492 87.4416C214.8 87.3762 215.116 87.3565 215.43 87.383C216.08 87.4511 216.704 87.6805 217.244 88.0505C217.546 88.3064 217.787 88.6279 217.948 88.9909C218.109 89.3539 218.185 89.7489 218.171 90.1458C217.946 90.7908 217.601 91.3874 217.155 91.9042C217.036 92.0614 216.978 92.2566 216.992 92.4535C217.005 92.6504 217.09 92.8357 217.229 92.975L218.977 94.7298C219.124 94.8776 219.322 94.9632 219.53 94.9691C219.738 94.975 219.94 94.9007 220.095 94.7614C220.59 94.3182 221.343 93.6502 221.606 93.4865C221.831 93.3355 222.086 93.2346 222.353 93.1908C222.552 93.1712 222.752 93.2135 222.926 93.3121C222.927 93.3209 222.926 93.3297 222.924 93.338C222.921 93.3464 222.917 93.354 222.911 93.3606L222.818 93.4488L222.803 93.4631C222.598 93.6685 222.482 93.9474 222.481 94.2385C222.481 94.5295 222.595 94.8089 222.8 95.015L222.806 95.0205L224.546 96.7497C224.648 96.8516 224.77 96.9323 224.903 96.987C225.036 97.0417 225.179 97.0694 225.323 97.0684C225.612 97.0689 225.89 96.9553 226.096 96.7522L228.916 93.9567C228.926 93.947 228.936 93.9368 228.945 93.9266C229.134 93.7185 229.238 93.4462 229.235 93.1645C229.232 92.8828 229.124 92.6125 228.931 92.408Z" fill="white"/>
<path d="M29.6998 94.2422C29.4986 94.2422 29.3019 94.1823 29.1346 94.0701C28.9673 93.9579 28.8369 93.7984 28.7599 93.6119C28.6829 93.4253 28.6627 93.2201 28.702 93.022C28.7412 92.824 28.8381 92.642 28.9804 92.4992L31.313 90.1582L28.9804 87.8171C28.7896 87.6257 28.6824 87.366 28.6824 87.0952C28.6824 86.8244 28.7896 86.5647 28.9804 86.3733C29.1712 86.1818 29.4299 86.0742 29.6998 86.0742C29.9696 86.0742 30.2283 86.1818 30.4191 86.3733L33.4712 89.4362C33.5657 89.531 33.6406 89.6436 33.6918 89.7675C33.7429 89.8913 33.7692 90.0241 33.7692 90.1582C33.7692 90.2923 33.7429 90.425 33.6918 90.5489C33.6406 90.6728 33.5657 90.7853 33.4712 90.8801L30.4191 93.9431C30.3248 94.0381 30.2126 94.1134 30.0892 94.1647C29.9657 94.216 29.8334 94.2423 29.6998 94.2422Z" fill="white"/>
<path d="M13.4221 97.3052C13.2885 97.3052 13.1562 97.2788 13.0328 97.2275C12.9093 97.1762 12.7972 97.101 12.7027 97.0062C12.6082 96.9113 12.5333 96.7988 12.4822 96.6749C12.431 96.551 12.4047 96.4183 12.4047 96.2842V95.2632C12.4127 93.6415 13.058 92.0884 14.2003 90.9414C15.3427 89.7944 16.8899 89.146 18.5058 89.1372H31.7345C32.0043 89.1372 32.2631 89.2448 32.4539 89.4362C32.6447 89.6277 32.7519 89.8874 32.7519 90.1582C32.7519 90.429 32.6447 90.6887 32.4539 90.8802C32.2631 91.0716 32.0043 91.1792 31.7345 91.1792H18.5089C17.431 91.1856 16.3992 91.6184 15.6373 92.3835C14.8755 93.1487 14.445 94.1846 14.4394 95.2663V96.2842C14.4394 96.4183 14.4131 96.551 14.362 96.6749C14.3109 96.7988 14.2359 96.9113 14.1415 97.0061C14.047 97.101 13.9349 97.1762 13.8114 97.2275C13.688 97.2788 13.5557 97.3052 13.4221 97.3052V97.3052Z" fill="white"/>
<path d="M21.561 105.473C21.4273 105.473 21.295 105.447 21.1715 105.396C21.0481 105.344 20.936 105.269 20.8416 105.174L17.7895 102.111C17.695 102.016 17.6201 101.904 17.569 101.78C17.5178 101.656 17.4915 101.523 17.4915 101.389C17.4915 101.255 17.5178 101.122 17.569 100.999C17.6201 100.875 17.695 100.762 17.7895 100.667L20.8416 97.6043C21.0324 97.4131 21.2911 97.3058 21.5608 97.3059C21.8304 97.306 22.089 97.4136 22.2797 97.605C22.4703 97.7963 22.5775 98.0558 22.5776 98.3264C22.5778 98.597 22.4708 98.8566 22.2803 99.0482L19.9477 101.389L22.2803 103.73C22.4226 103.873 22.5195 104.055 22.5587 104.253C22.598 104.451 22.5778 104.656 22.5008 104.843C22.4238 105.029 22.2935 105.189 22.1262 105.301C21.9589 105.413 21.7622 105.473 21.561 105.473Z" fill="white"/>
<path d="M19.5262 102.41C19.2564 102.41 18.9976 102.303 18.8068 102.111C18.616 101.92 18.5089 101.66 18.5089 101.389C18.5089 101.118 18.616 100.859 18.8068 100.667C18.9976 100.476 19.2564 100.368 19.5262 100.368H32.7518C33.8297 100.362 34.8615 99.929 35.6233 99.1638C36.3852 98.3987 36.8156 97.3628 36.8212 96.2811V95.2632C36.8212 94.9924 36.9284 94.7327 37.1192 94.5412C37.31 94.3498 37.5688 94.2422 37.8386 94.2422C38.1084 94.2422 38.3672 94.3498 38.558 94.5412C38.7488 94.7327 38.856 94.9924 38.856 95.2632V96.2842C38.848 97.9059 38.2027 99.459 37.0603 100.606C35.918 101.753 34.3708 102.401 32.7548 102.41L19.5262 102.41Z" fill="white"/>
</svg>
