<svg width="369" height="318" viewBox="0 0 369 318" fill="none" xmlns="http://www.w3.org/2000/svg">
<g clip-path="url(#clip0_810_807)">
<path d="M341.649 294.721L351.589 291.59C352.827 286.293 352.745 280.776 351.349 275.518C347.356 284.334 335.64 286.494 328.965 293.531C326.9 295.741 325.362 298.385 324.466 301.266C323.57 304.146 323.338 307.19 323.788 310.172L321.696 317.216C326.581 316.802 331.316 315.341 335.577 312.934C339.838 310.528 343.523 307.233 346.378 303.276C347.957 301.041 349.247 298.617 350.216 296.061C345.977 295.64 341.649 294.721 341.649 294.721Z" fill="#F2F2F2"/>
<path d="M331.027 281.695L338.518 274.492C337.247 269.202 334.696 264.301 331.085 260.213C331.47 269.872 321.954 276.993 319.14 286.247C318.285 289.14 318.096 292.187 318.588 295.163C319.08 298.138 320.239 300.965 321.981 303.435L323.273 310.665C327.459 308.131 331.041 304.727 333.774 300.686C336.507 296.645 338.325 292.065 339.103 287.259C339.512 284.559 339.578 281.818 339.297 279.102C335.314 280.602 331.027 281.695 331.027 281.695Z" fill="#F2F2F2"/>
<path d="M281.235 21.1142H1.0898C0.798416 21.108 0.521055 20.9888 0.317164 20.782C0.113273 20.5753 -0.000915527 20.2974 -0.000915527 20.008C-0.000915527 19.7186 0.113273 19.4408 0.317164 19.234C0.521055 19.0272 0.798416 18.908 1.0898 18.9019H281.235C281.527 18.908 281.804 19.0272 282.008 19.234C282.212 19.4408 282.326 19.7186 282.326 20.008C282.326 20.2974 282.212 20.5753 282.008 20.782C281.804 20.9888 281.527 21.108 281.235 21.1142V21.1142Z" fill="#3F3D56"/>
<path d="M20.1597 13.2541C23.7655 13.2541 26.6886 10.2871 26.6886 6.62704C26.6886 2.96703 23.7655 0 20.1597 0C16.5538 0 13.6307 2.96703 13.6307 6.62704C13.6307 10.2871 16.5538 13.2541 20.1597 13.2541Z" fill="#3F3D56"/>
<path d="M42.714 13.2541C46.3199 13.2541 49.243 10.2871 49.243 6.62704C49.243 2.96703 46.3199 0 42.714 0C39.1082 0 36.1851 2.96703 36.1851 6.62704C36.1851 10.2871 39.1082 13.2541 42.714 13.2541Z" fill="#3F3D56"/>
<path d="M65.2685 13.2541C68.8743 13.2541 71.7974 10.2871 71.7974 6.62704C71.7974 2.96703 68.8743 0 65.2685 0C61.6627 0 58.7396 2.96703 58.7396 6.62704C58.7396 10.2871 61.6627 13.2541 65.2685 13.2541Z" fill="#3F3D56"/>
<path d="M267.655 1.64258H251.634C251.316 1.64886 251.014 1.77852 250.792 2.00372C250.569 2.22893 250.445 2.53172 250.445 2.84708C250.445 3.16244 250.569 3.46523 250.792 3.69044C251.014 3.91564 251.316 4.0453 251.634 4.05158H267.655C267.973 4.0453 268.275 3.91564 268.498 3.69044C268.72 3.46523 268.845 3.16244 268.845 2.84708C268.845 2.53172 268.72 2.22893 268.498 2.00372C268.275 1.77852 267.973 1.64886 267.655 1.64258V1.64258Z" fill="#3F3D56"/>
<path d="M267.655 6.16406H251.634C251.316 6.1703 251.014 6.29995 250.792 6.52516C250.569 6.75037 250.445 7.05318 250.445 7.36856C250.445 7.68395 250.569 7.98677 250.792 8.21198C251.014 8.43719 251.316 8.56683 251.634 8.57307H267.655C267.973 8.56683 268.275 8.43719 268.498 8.21198C268.72 7.98677 268.845 7.68395 268.845 7.36856C268.845 7.05318 268.72 6.75037 268.498 6.52516C268.275 6.29995 267.973 6.1703 267.655 6.16406V6.16406Z" fill="#3F3D56"/>
<path d="M267.655 10.6792H251.634C251.316 10.6854 251.014 10.8151 250.792 11.0403C250.569 11.2655 250.445 11.5683 250.445 11.8837C250.445 12.1991 250.569 12.5019 250.792 12.7271C251.014 12.9523 251.316 13.082 251.634 13.0882H267.655C267.973 13.082 268.275 12.9523 268.498 12.7271C268.72 12.5019 268.845 12.1991 268.845 11.8837C268.845 11.5683 268.72 11.2655 268.498 11.0403C268.275 10.8151 267.973 10.6854 267.655 10.6792V10.6792Z" fill="#3F3D56"/>
<path d="M21.7025 66.0562C26.1603 66.0562 29.7742 62.468 29.7742 58.0418C29.7742 53.6155 26.1603 50.0273 21.7025 50.0273C17.2446 50.0273 13.6307 53.6155 13.6307 58.0418C13.6307 62.468 17.2446 66.0562 21.7025 66.0562Z" fill="#E6E7E8"/>
<path d="M227.25 75.7882H16.0344C15.397 75.7882 14.7856 75.5368 14.3348 75.0892C13.8841 74.6416 13.6309 74.0346 13.6309 73.4017C13.6309 72.7687 13.8841 72.1617 14.3348 71.7141C14.7856 71.2666 15.397 71.0151 16.0344 71.0151H227.25C227.887 71.0151 228.499 71.2666 228.95 71.7141C229.4 72.1617 229.654 72.7687 229.654 73.4017C229.654 74.0346 229.4 74.6416 228.95 75.0892C228.499 75.5368 227.887 75.7882 227.25 75.7882V75.7882Z" fill="#E6E7E8"/>
<path d="M171.855 85.2191H16.0344C15.3969 85.2191 14.7855 84.9677 14.3347 84.5201C13.8839 84.0725 13.6307 83.4654 13.6307 82.8324C13.6307 82.1995 13.8839 81.5924 14.3347 81.1448C14.7855 80.6972 15.3969 80.4458 16.0344 80.4458H171.855C172.492 80.4458 173.104 80.6972 173.555 81.1448C174.005 81.5924 174.259 82.1995 174.259 82.8324C174.259 83.4654 174.005 84.0725 173.555 84.5201C173.104 84.9677 172.492 85.2191 171.855 85.2191V85.2191Z" fill="#E6E7E8"/>
<path d="M21.7025 191.149C26.1603 191.149 29.7742 187.561 29.7742 183.135C29.7742 178.708 26.1603 175.12 21.7025 175.12C17.2446 175.12 13.6307 178.708 13.6307 183.135C13.6307 187.561 17.2446 191.149 21.7025 191.149Z" fill="#E6E7E8"/>
<path d="M227.25 200.881H16.0344C15.7184 200.881 15.4055 200.82 15.1134 200.7C14.8213 200.581 14.5559 200.405 14.3323 200.183C14.1087 199.962 13.9313 199.698 13.8103 199.409C13.6893 199.119 13.627 198.808 13.627 198.494C13.627 198.181 13.6893 197.87 13.8103 197.58C13.9313 197.29 14.1087 197.027 14.3323 196.806C14.5559 196.584 14.8213 196.408 15.1134 196.288C15.4055 196.169 15.7184 196.107 16.0344 196.108H227.25C227.92 196.145 228.551 196.429 229.02 196.905C229.49 197.38 229.763 198.013 229.787 198.679C229.767 198.989 229.686 199.292 229.547 199.571C229.409 199.851 229.216 200.1 228.98 200.304C228.745 200.509 228.47 200.665 228.173 200.764C227.876 200.863 227.562 200.903 227.25 200.881V200.881Z" fill="#E6E7E8"/>
<path d="M171.855 210.311H16.0344C15.3969 210.311 14.7855 210.06 14.3347 209.612C13.8839 209.165 13.6307 208.558 13.6307 207.925C13.6307 207.292 13.8839 206.685 14.3347 206.237C14.7855 205.79 15.3969 205.538 16.0344 205.538H171.855C172.492 205.538 173.104 205.79 173.555 206.237C174.005 206.685 174.259 207.292 174.259 207.925C174.259 208.558 174.005 209.165 173.555 209.612C173.104 210.06 172.492 210.311 171.855 210.311V210.311Z" fill="#E6E7E8"/>
<path d="M21.7025 123.887C26.1603 123.887 29.7742 120.299 29.7742 115.873C29.7742 111.447 26.1603 107.858 21.7025 107.858C17.2446 107.858 13.6307 111.447 13.6307 115.873C13.6307 120.299 17.2446 123.887 21.7025 123.887Z" fill="#E6E7E8"/>
<path d="M227.25 133.62H16.0344C15.397 133.62 14.7856 133.368 14.3348 132.921C13.8841 132.473 13.6309 131.866 13.6309 131.233C13.6309 130.6 13.8841 129.993 14.3348 129.546C14.7856 129.098 15.397 128.847 16.0344 128.847H227.25C227.887 128.847 228.499 129.098 228.95 129.546C229.4 129.993 229.654 130.6 229.654 131.233C229.654 131.866 229.4 132.473 228.95 132.921C228.499 133.368 227.887 133.62 227.25 133.62V133.62Z" fill="#E6E7E8"/>
<path d="M197.837 143.05H16.0344C15.3969 143.05 14.7855 142.799 14.3347 142.351C13.8839 141.904 13.6307 141.296 13.6307 140.664C13.6307 140.031 13.8839 139.423 14.3347 138.976C14.7855 138.528 15.3969 138.277 16.0344 138.277H197.837C198.474 138.277 199.086 138.528 199.536 138.976C199.987 139.423 200.24 140.031 200.24 140.664C200.24 141.296 199.987 141.904 199.536 142.351C199.086 142.799 198.474 143.05 197.837 143.05V143.05Z" fill="#E6E7E8"/>
<path d="M185.497 152.48H16.0344C15.3969 152.48 14.7855 152.229 14.3347 151.781C13.8839 151.334 13.6307 150.727 13.6307 150.094C13.6307 149.461 13.8839 148.854 14.3347 148.406C14.7855 147.958 15.3969 147.707 16.0344 147.707H185.497C186.135 147.707 186.746 147.958 187.197 148.406C187.648 148.854 187.901 149.461 187.901 150.094C187.901 150.727 187.648 151.334 187.197 151.781C186.746 152.229 186.135 152.48 185.497 152.48V152.48Z" fill="#E6E7E8"/>
<path d="M189.004 257.989C222.017 257.989 248.779 231.417 248.779 198.638C248.779 165.859 222.017 139.287 189.004 139.287C155.991 139.287 129.228 165.859 129.228 198.638C129.228 231.417 155.991 257.989 189.004 257.989Z" fill="#C7C6C6"/>
<path d="M188.922 219.346C193.638 219.346 197.461 215.55 197.461 210.867C197.461 206.184 193.638 202.388 188.922 202.388C184.205 202.388 180.382 206.184 180.382 210.867C180.382 215.55 184.205 219.346 188.922 219.346Z" fill="#3F3D56"/>
<path d="M188.922 214.78C191.098 214.78 192.863 213.028 192.863 210.867C192.863 208.706 191.098 206.954 188.922 206.954C186.745 206.954 184.98 208.706 184.98 210.867C184.98 213.028 186.745 214.78 188.922 214.78Z" fill="#C7C6C6"/>
<path d="M204.773 229.741H173.235C170.112 229.737 167.118 228.504 164.909 226.312C162.701 224.119 161.459 221.147 161.455 218.046V203.688C161.459 200.587 162.701 197.615 164.909 195.422C167.118 193.23 170.112 191.996 173.235 191.993H204.773C207.896 191.996 210.89 193.23 213.098 195.422C215.306 197.615 216.548 200.588 216.552 203.688V218.046C216.548 221.147 215.306 224.119 213.098 226.312C210.89 228.504 207.896 229.737 204.773 229.741V229.741ZM173.235 193.217C170.439 193.22 167.758 194.325 165.781 196.288C163.804 198.251 162.692 200.912 162.689 203.688V218.046C162.692 220.822 163.804 223.483 165.781 225.446C167.758 227.409 170.439 228.513 173.235 228.516H204.773C207.569 228.513 210.249 227.409 212.226 225.446C214.203 223.483 215.316 220.822 215.319 218.046V203.688C215.316 200.912 214.204 198.251 212.227 196.288C210.25 194.325 207.569 193.22 204.773 193.217L173.235 193.217Z" fill="white"/>
<path d="M171.367 221.947H199.36C200.813 221.947 202.252 221.663 203.594 221.111C204.937 220.559 206.157 219.75 207.184 218.73C208.211 217.71 209.026 216.498 209.583 215.166C210.139 213.833 210.425 212.404 210.425 210.961V198.946C210.423 197.614 210.175 196.293 209.695 195.049C211.061 196.07 212.169 197.392 212.932 198.911C213.695 200.43 214.092 202.104 214.092 203.802V215.817C214.092 217.259 213.806 218.688 213.25 220.021C212.694 221.354 211.879 222.565 210.852 223.585C209.824 224.605 208.604 225.414 207.262 225.966C205.92 226.519 204.481 226.803 203.028 226.803H175.034C172.791 226.801 170.601 226.123 168.755 224.857C166.909 223.591 165.495 221.797 164.699 219.714C166.616 221.163 168.958 221.948 171.367 221.947Z" fill="#3F3D56"/>
<path d="M257.092 310.148L250.214 310.147L246.941 283.803L257.094 283.803L257.092 310.148Z" fill="#A0616A"/>
<path d="M257.335 317.273L236.181 317.272V317.007C236.182 314.839 237.049 312.76 238.593 311.226C240.137 309.693 242.231 308.832 244.415 308.832H244.415L248.279 305.921L255.489 308.832L257.335 308.832L257.335 317.273Z" fill="#2F2E41"/>
<path d="M305.765 310.148L312.643 310.147L315.916 283.803L305.763 283.803L305.765 310.148Z" fill="#A0616A"/>
<path d="M305.522 317.273L326.676 317.272V317.007C326.676 314.839 325.808 312.76 324.264 311.226C322.72 309.693 320.626 308.832 318.442 308.832H318.442L314.578 305.921L307.369 308.832L305.522 308.832L305.522 317.273Z" fill="#2F2E41"/>
<path d="M246.639 264.444C246.74 262.94 247.548 254.627 247.548 254.627L249.483 236.996L252.893 190.262L253.115 187.203L270.978 183.798L283.187 177.986L297.698 182.592L308.997 186.799C308.997 186.799 309.016 188.6 309.103 190.776C309.219 193.624 309.422 197.115 309.906 198.023C310.714 199.627 310.511 208.238 310.511 208.238C310.511 208.238 311.314 225.758 312.325 227.679C313.336 229.6 313.539 233.601 313.234 234.403C312.929 235.205 314.245 256.245 314.245 256.245C314.245 256.245 317.622 293.479 315.503 299.093C313.385 304.708 305.379 301.03 305.379 301.03C305.379 301.03 305.766 299.532 303.444 298.826C301.122 298.12 294.051 245.324 294.051 245.324C294.051 245.324 292.735 234.499 291.526 231.397C290.316 228.294 289.204 219.577 289.204 219.577C289.204 219.577 281.736 205.15 281.639 201.942C281.639 201.942 280.662 198.94 279.738 202.244C278.814 205.549 276.091 213.463 276.091 213.463L273.435 223.184L270.311 237.707L268.289 249.935C268.289 249.935 265.261 266.163 264.777 266.864C264.293 267.565 264.777 282.391 264.777 282.391C264.777 282.391 262.436 295.017 259.128 297.222C255.819 299.426 247.054 297.257 247.054 297.257C247.054 297.257 246.537 265.947 246.639 264.444Z" fill="#2F2E41"/>
<path d="M254.259 144.579L258.23 156.456L253.33 162.248L255.488 164.453L253.897 167.569L249.746 200.237L272.499 208.805L280.161 199.267L286.203 208.805L312.531 202.417L305.816 160.759V158.036L303.921 152.777V141.644L308.927 108.506L293.985 103.31L286.841 97.6958L284.529 105.591L274.686 103.853L274.43 97.9211L266.898 104.986L260.556 106.782L252.963 108.506L251.995 110.908L253.93 110.428L253.616 141.669L254.259 144.579Z" fill="#2F2E41"/>
<path d="M247.458 188.035L251.279 151.309L252.288 136.194L241.592 134.274C241.592 134.274 242.016 145.082 240.615 151.18C239.232 157.197 240.431 187.229 240.517 188.032C239.731 188.73 239.178 189.647 238.929 190.664C238.68 191.681 238.748 192.748 239.124 193.726C239.5 194.703 240.165 195.545 241.033 196.138C241.901 196.732 242.929 197.05 243.983 197.051C245.037 197.051 246.066 196.734 246.934 196.141C247.803 195.548 248.469 194.708 248.846 193.731C249.222 192.753 249.291 191.686 249.044 190.669C248.796 189.652 248.243 188.734 247.458 188.035V188.035Z" fill="#A0616A"/>
<path d="M237.025 158.92L240 159.53L250.206 161.628L250.772 161.744L251.976 156.989L253.374 155.51L256.034 141.669L256.175 140.948L260.194 132.419L262.975 106.782L252.634 108.626C252.581 108.679 252.532 108.737 252.484 108.795C250.999 110.466 249.94 112.79 248.208 115.129C242.573 122.741 238.249 141.236 238.418 151.37C238.423 151.533 238.254 151.711 238.051 151.894C237.092 152.769 236.466 153.946 236.279 155.226C236.092 156.505 236.356 157.81 237.025 158.92Z" fill="#2F2E41"/>
<path d="M313.948 188.035L310.127 151.309L309.118 136.194L319.814 134.274C319.814 134.274 319.39 145.082 320.791 151.18C322.174 157.197 320.975 187.229 320.889 188.032C321.675 188.73 322.228 189.647 322.477 190.664C322.726 191.681 322.658 192.748 322.282 193.726C321.906 194.703 321.241 195.545 320.373 196.138C319.505 196.732 318.477 197.05 317.423 197.051C316.369 197.051 315.34 196.734 314.472 196.141C313.604 195.548 312.937 194.708 312.56 193.731C312.184 192.753 312.115 191.686 312.362 190.669C312.61 189.652 313.163 188.734 313.948 188.035V188.035Z" fill="#A0616A"/>
<path d="M324.381 158.92L321.406 159.53L311.2 161.628L310.634 161.744L309.43 156.989L308.032 155.51L305.372 141.669L305.231 140.948L301.212 132.419L302.131 106.782L308.772 108.626C308.825 108.679 308.874 108.737 308.922 108.795C310.407 110.466 311.466 112.79 313.198 115.129C318.833 122.741 323.157 141.236 322.988 151.37C322.983 151.533 323.152 151.711 323.355 151.894C324.314 152.769 324.94 153.946 325.127 155.226C325.314 156.505 325.05 157.81 324.381 158.92V158.92Z" fill="#2F2E41"/>
<path d="M269.57 110.575L274.429 97.921L286.841 97.6953L290.96 110.575L305.763 192.685C305.763 192.685 260.411 205.225 260.871 190.151C261.355 174.302 263.537 153.25 263.537 153.25L269.57 110.575Z" fill="#971004"/>
<path d="M280.358 94.3817C288.433 94.3817 294.979 87.8821 294.979 79.8644C294.979 71.8468 288.433 65.3472 280.358 65.3472C272.283 65.3472 265.737 71.8468 265.737 79.8644C265.737 87.8821 272.283 94.3817 280.358 94.3817Z" fill="#A0616A"/>
<path d="M264.875 69.3331C267.255 66.7606 270.232 62.0518 279.25 60.0744C290.394 57.6311 295.659 67.6261 292.849 67.7899C301.066 70.2606 295.788 87.1446 293.432 85.7286C293.412 85.7146 293.392 85.6996 293.374 85.6835C292.107 84.7571 291.043 83.584 290.248 82.2358C289.454 80.8876 288.944 79.3926 288.75 77.8422L288.303 73.8468C288.239 77.0976 284.893 77.5276 281.474 76.3304C281.676 75.6177 282.062 74.9696 282.594 74.4501C283.125 73.9306 283.784 73.5576 284.505 73.368C282.121 75.5132 279.094 76.821 275.889 77.0902C276.057 76.2762 276.398 75.5074 276.89 74.8353C277.382 74.1632 278.013 73.6034 278.741 73.1935L278.606 73.0618C277.271 74.1797 275.738 75.0414 274.086 75.6031C272.201 76.1394 269.943 75.8492 268.652 74.3845C268.304 73.9803 268.042 73.511 267.88 73.0044C268.159 75.5789 266.42 78.5176 265.069 78.0131C263.945 77.7962 263.29 71.0456 264.875 69.3331Z" fill="#2F2E41"/>
<path d="M369 317.272C369 317.367 368.981 317.462 368.945 317.551C368.908 317.639 368.854 317.72 368.786 317.787C368.717 317.855 368.636 317.909 368.547 317.945C368.458 317.982 368.363 318.001 368.266 318H195.422C195.227 318 195.041 317.923 194.903 317.787C194.765 317.65 194.688 317.465 194.688 317.272C194.688 317.078 194.765 316.893 194.903 316.756C195.041 316.62 195.227 316.543 195.422 316.543H368.266C368.363 316.543 368.458 316.561 368.547 316.598C368.636 316.634 368.717 316.688 368.786 316.756C368.854 316.823 368.908 316.904 368.945 316.992C368.981 317.081 369 317.176 369 317.272Z" fill="#CCCCCC"/>
<path d="M189.489 166.458C183.643 166.458 178.504 169.085 175.594 173.03C178.704 170.782 182.46 169.586 186.307 169.617C195.361 169.617 202.726 175.914 202.726 183.654V190.088H205.908V180.494C205.908 172.754 198.543 166.458 189.489 166.458Z" fill="#3F3D56"/>
<path d="M208.095 193.38H169.912V182.226C169.912 173.226 178.477 165.905 189.004 165.905C199.531 165.905 208.095 173.226 208.095 182.226V193.38ZM171.146 192.156H206.862V182.226C206.862 173.902 198.851 167.129 189.004 167.129C179.157 167.129 171.146 173.902 171.146 182.226V192.156Z" fill="white"/>
<path d="M198.782 189.122H179.225C178.345 189.121 177.502 188.773 176.879 188.156C176.257 187.538 175.907 186.7 175.906 185.827V181.387C175.906 175.198 181.782 170.163 189.004 170.163C196.225 170.163 202.101 175.198 202.101 181.387V185.827C202.1 186.7 201.75 187.538 201.128 188.156C200.506 188.773 199.662 189.121 198.782 189.122ZM189.004 171.388C182.462 171.388 177.14 175.873 177.14 181.387V185.827C177.14 186.375 177.36 186.902 177.751 187.29C178.142 187.678 178.672 187.897 179.225 187.897H198.782C199.335 187.897 199.865 187.678 200.256 187.29C200.647 186.902 200.867 186.375 200.867 185.827V181.387C200.867 175.873 195.545 171.388 189.004 171.388Z" fill="white"/>
</g>
<defs>
<clipPath id="clip0_810_807">
<rect width="369" height="318" fill="white"/>
</clipPath>
</defs>
</svg>
