<svg width="83" height="83" viewBox="0 0 83 83" fill="none" xmlns="http://www.w3.org/2000/svg">
<path d="M72.625 17.2917C68.7862 16.0813 64.5671 15.5625 60.5208 15.5625C53.7771 15.5625 46.5146 16.9458 41.5 20.75C36.4854 16.9458 29.2229 15.5625 22.4791 15.5625C15.7354 15.5625 8.4729 16.9458 3.45831 20.75V74.3542C8.4729 70.55 15.7354 69.1667 22.4791 69.1667C29.2229 69.1667 36.4854 70.55 41.5 74.3542C46.5146 70.55 53.7771 69.1667 60.5208 69.1667C64.5671 69.1667 68.7862 69.6854 72.625 70.8958C75.2187 71.7604 77.4666 72.7979 79.5416 74.3542V20.75C77.4666 19.1937 75.2187 18.1562 72.625 17.2917ZM72.625 63.9792C68.8208 62.7687 64.6708 62.25 60.5208 62.25C54.6416 62.25 46.1687 64.4979 41.5 67.4375V27.6667C46.1687 24.7271 54.6416 22.4792 60.5208 22.4792C64.6708 22.4792 68.8208 22.9979 72.625 24.2083V63.9792Z" fill="white"/>
<path d="M60.5208 36.3125C63.5641 36.3125 66.5037 36.6238 69.1666 37.2117V31.955C66.4346 31.4362 63.495 31.125 60.5208 31.125C54.6416 31.125 49.3158 32.1279 44.9583 33.9954V39.7363C48.8662 37.5229 54.2958 36.3125 60.5208 36.3125Z" fill="white"/>
<path d="M44.9583 43.1946V48.9355C48.8662 46.7221 54.2958 45.5117 60.5208 45.5117C63.5641 45.5117 66.5037 45.823 69.1666 46.4109V41.1542C66.4346 40.6355 63.495 40.3242 60.5208 40.3242C54.6416 40.3242 49.3158 41.3617 44.9583 43.1946Z" fill="white"/>
<path d="M60.5208 49.5581C54.6416 49.5581 49.3158 50.561 44.9583 52.4285V58.1694C48.8662 55.956 54.2958 54.7456 60.5208 54.7456C63.5641 54.7456 66.5037 55.0569 69.1666 55.6448V50.3881C66.4346 49.8348 63.495 49.5581 60.5208 49.5581Z" fill="white"/>
</svg>
