<svg width="48" height="48" viewBox="0 0 48 48" fill="none" xmlns="http://www.w3.org/2000/svg">
<path d="M48 23.9999C48 10.7438 37.2562 0 24 0C10.7438 0 0 10.7438 0 23.9999C0 35.9812 8.775 45.9093 20.25 47.7093V30.9374H14.1562V23.9999H20.25V18.7124C20.25 12.6984 23.8313 9.37497 29.3156 9.37497C31.9406 9.37497 34.6875 9.84372 34.6875 9.84372V15.75H31.6594C28.6781 15.75 27.75 17.6015 27.75 19.4999V23.9999H34.4062L33.3422 30.9374H27.75V47.7093C39.225 45.9093 48 35.9812 48 23.9999Z" fill="white"/>
<path d="M33.3422 30.9377L34.4062 24.0003H27.75V19.5004C27.75 17.602 28.6781 15.7504 31.6594 15.7504H34.6875V9.84423C34.6875 9.84423 31.9406 9.37549 29.3156 9.37549C23.8313 9.37549 20.25 12.6988 20.25 18.7129V24.0003H14.1562V30.9377H20.25V47.7094C21.4734 47.9016 22.725 48 24 48C25.275 48 26.5266 47.9016 27.75 47.7094V30.9377H33.3422Z" fill="#393737"/>
</svg>
