<svg width="632" height="632" viewBox="0 0 632 632" fill="none" xmlns="http://www.w3.org/2000/svg">
<path d="M632 483.354H0V483.67H632V483.354Z" fill="#EBEBEB"/>
<path d="M568.674 503.691H526.81V504.007H568.674V503.691Z" fill="#EBEBEB"/>
<path d="M418.662 507.129H407.678V507.445H418.662V507.129Z" fill="#EBEBEB"/>
<path d="M525.546 491.961H501.29V492.277H525.546V491.961Z" fill="#EBEBEB"/>
<path d="M120.902 494.085H66.3094V494.401H120.902V494.085Z" fill="#EBEBEB"/>
<path d="M140.165 494.085H132.164V494.401H140.165V494.085Z" fill="#EBEBEB"/>
<path d="M284.59 499.419H166.178V499.735H284.59V499.419Z" fill="#EBEBEB"/>
<path d="M299.568 426.979H55.5023C53.5903 426.976 51.7578 426.214 50.407 424.861C49.0562 423.508 48.2975 421.674 48.2975 419.762V76.6743C48.3141 74.7732 49.0801 72.9555 50.4291 71.616C51.7782 70.2765 53.6012 69.5233 55.5023 69.52H299.568C301.482 69.52 303.318 70.2804 304.672 71.634C306.025 72.9875 306.786 74.8233 306.786 76.7375V419.762C306.786 421.676 306.025 423.512 304.672 424.865C303.318 426.219 301.482 426.979 299.568 426.979ZM55.5023 69.7728C53.6741 69.7762 51.9219 70.5048 50.6304 71.7987C49.3389 73.0926 48.6135 74.8461 48.6135 76.6743V419.762C48.6135 421.59 49.3389 423.343 50.6304 424.637C51.9219 425.931 53.6741 426.66 55.5023 426.663H299.568C301.397 426.66 303.151 425.932 304.444 424.638C305.738 423.345 306.466 421.591 306.47 419.762V76.6743C306.466 74.8449 305.738 73.0914 304.444 71.7979C303.151 70.5043 301.397 69.7762 299.568 69.7728H55.5023Z" fill="#EBEBEB"/>
<path d="M572.984 426.979H328.905C326.992 426.976 325.158 426.214 323.806 424.862C322.453 423.509 321.691 421.675 321.688 419.762V76.6743C321.708 74.7721 322.477 72.9544 323.828 71.6152C325.179 70.276 327.003 69.5232 328.905 69.52H572.984C574.883 69.5266 576.703 70.2813 578.049 71.6204C579.395 72.9596 580.159 74.7754 580.176 76.6743V419.762C580.176 421.672 579.419 423.504 578.071 424.856C576.723 426.209 574.894 426.973 572.984 426.979ZM328.905 69.7728C327.076 69.7762 325.323 70.5043 324.029 71.7979C322.736 73.0914 322.007 74.8449 322.004 76.6743V419.762C322.007 421.591 322.736 423.345 324.029 424.638C325.323 425.932 327.076 426.66 328.905 426.663H572.984C574.813 426.66 576.567 425.932 577.86 424.638C579.154 423.345 579.882 421.591 579.885 419.762V76.6743C579.882 74.8449 579.154 73.0914 577.86 71.7979C576.567 70.5043 574.813 69.7762 572.984 69.7728H328.905Z" fill="#EBEBEB"/>
<path d="M169.869 172.498H99.7043L100.779 163.005H170.943L169.869 172.498Z" fill="#F5F5F5"/>
<path d="M164.838 216.839H94.6736L95.748 207.347H165.913L164.838 216.839Z" fill="#F5F5F5"/>
<path d="M159.82 261.18H89.6555L90.7299 251.7H160.895L159.82 261.18Z" fill="#F5F5F5"/>
<path d="M154.789 305.522H84.6248L85.6992 296.042H155.864L154.789 305.522Z" fill="#F5F5F5"/>
<path d="M149.771 349.863H79.6067L80.6811 340.383H150.846L149.771 349.863Z" fill="#F5F5F5"/>
<path d="M144.753 394.216H74.5886L75.663 384.724H145.815L144.753 394.216Z" fill="#F5F5F5"/>
<path d="M139.723 438.557H69.5579L70.6323 429.065H140.797L139.723 438.557Z" fill="#F5F5F5"/>
<path d="M69.2798 483.67H58.2957L96.7592 144.134H107.743L69.2798 483.67Z" fill="#EBEBEB"/>
<path d="M140.772 483.67H129.787L168.251 144.134H179.235L140.772 483.67Z" fill="#EBEBEB"/>
<path d="M561.646 124.668H429.305V483.67H561.646V124.668Z" fill="#F5F5F5"/>
<path d="M554.403 132.556H436.56V191.117H554.403V132.556Z" fill="#EBEBEB"/>
<path d="M487.727 154.676H451.286V191.117H487.727V154.676Z" fill="#F0F0F0"/>
<path d="M526.759 165.18H500.822V191.117H526.759V165.18Z" fill="#F0F0F0"/>
<path d="M554.403 197.26H436.56V255.821H554.403V197.26Z" fill="#EBEBEB"/>
<path d="M468.83 219.38H451.286V255.821H468.83V219.38Z" fill="#F0F0F0"/>
<path d="M526.772 240.88H487.74V255.821H526.772V240.88Z" fill="#F0F0F0"/>
<path d="M518.215 218.596H480.32V240.881H518.215V218.596Z" fill="#F0F0F0"/>
<path d="M554.403 261.964H436.56V320.525H554.403V261.964Z" fill="#EBEBEB"/>
<path d="M487.74 284.084H480.32V320.525H487.74V284.084Z" fill="#F0F0F0"/>
<path d="M546.326 271.204H500.822V320.525H546.326V271.204Z" fill="#F0F0F0"/>
<path d="M554.403 326.668H436.56V385.229H554.403V326.668Z" fill="#EBEBEB"/>
<path d="M487.727 348.788H451.286V385.229H487.727V348.788Z" fill="#F0F0F0"/>
<path d="M526.759 359.292H500.822V385.229H526.759V359.292Z" fill="#F0F0F0"/>
<path d="M554.403 391.372H436.56V449.933H554.403V391.372Z" fill="#EBEBEB"/>
<path d="M487.727 413.48H451.286V449.921H487.727V413.48Z" fill="#F0F0F0"/>
<path d="M526.759 423.996H500.822V449.933H526.759V423.996Z" fill="#F0F0F0"/>
<path d="M487.74 106.618H447.823V124.668H487.74V106.618Z" fill="#F0F0F0"/>
<path d="M523.574 115.643H503.034V124.668H523.574V115.643Z" fill="#F0F0F0"/>
<path d="M123.076 483.67H237.682V380.894H123.076L123.076 483.67Z" fill="#EBEBEB"/>
<path d="M197.791 483.67H237.683V380.894H197.791V483.67Z" fill="#E0E0E0"/>
<path d="M100.261 383.017H214.867V299.353H100.261L100.261 383.017Z" fill="#F5F5F5"/>
<path d="M174.975 383.017H214.867V299.353H174.975V383.017Z" fill="#EBEBEB"/>
<path d="M127.158 299.341H237.683V258.387H127.158V299.341Z" fill="#FAFAFA"/>
<path d="M199.206 299.341H237.67V258.387H199.206V299.341Z" fill="#F0F0F0"/>
<path d="M239.579 106.618H83.0195V115.643H239.579V106.618Z" fill="#F0F0F0"/>
<path d="M117.413 93.8521H94.6736V106.618H117.413V93.8521Z" fill="#F5F5F5"/>
<path d="M146.75 82.5266H122.659V106.618H146.75V82.5266Z" fill="#F0F0F0"/>
<path d="M167.48 94.5725H155.434V106.618H167.48V94.5725Z" fill="#EBEBEB"/>
<path d="M187.881 100.804C187.884 102.04 187.519 103.249 186.834 104.278C186.149 105.307 185.174 106.109 184.032 106.583C182.891 107.057 181.634 107.182 180.422 106.941C179.209 106.701 178.096 106.106 177.222 105.232C176.348 104.358 175.753 103.244 175.512 102.032C175.272 100.819 175.396 99.5628 175.87 98.4213C176.345 97.2798 177.147 96.3047 178.176 95.6196C179.204 94.9344 180.413 94.57 181.65 94.5725C183.301 94.5759 184.884 95.2335 186.052 96.4014C187.22 97.5693 187.878 99.1524 187.881 100.804Z" fill="#F5F5F5"/>
<path d="M195.768 106.618L203.34 82.5266H215.841L222.755 107.048L195.768 106.618Z" fill="#EBEBEB"/>
<path d="M316 540.436C451.352 540.436 561.077 534.03 561.077 526.127C561.077 518.225 451.352 511.819 316 511.819C180.648 511.819 70.9231 518.225 70.9231 526.127C70.9231 534.03 180.648 540.436 316 540.436Z" fill="#F5F5F5"/>
<path d="M414.112 149.62V524.358C414.113 525.084 413.971 525.803 413.692 526.474C413.412 527.144 413.003 527.752 412.486 528.263C411.97 528.774 411.357 529.176 410.683 529.448C410.01 529.719 409.289 529.853 408.563 529.843H234.131C233.485 529.853 232.844 529.734 232.245 529.493C231.646 529.253 231.101 528.895 230.642 528.44C230.167 527.965 229.791 527.399 229.537 526.776C229.283 526.153 229.156 525.485 229.163 524.813V149.152C229.119 147.98 229.541 146.839 230.337 145.979C231.134 145.119 232.239 144.61 233.41 144.564H282.946C283.638 144.577 284.31 144.795 284.877 145.191C285.444 145.588 285.881 146.143 286.132 146.788L288.192 151.844C288.443 152.488 288.88 153.042 289.447 153.436C290.015 153.83 290.687 154.046 291.377 154.056H352.049C352.736 154.052 353.406 153.843 353.974 153.456C354.541 153.068 354.98 152.52 355.234 151.882L357.295 146.826C357.543 146.179 357.979 145.62 358.546 145.222C359.114 144.823 359.787 144.603 360.48 144.589H409.296C410.59 144.65 411.812 145.207 412.708 146.143C413.604 147.079 414.107 148.324 414.112 149.62Z" fill="#9A9A9A"/>
<path opacity="0.6" d="M252.181 159.668H254.759V156.23H252.181V159.668Z" fill="white"/>
<path opacity="0.6" d="M247.971 159.668H250.55V155.093H247.971V159.668Z" fill="white"/>
<path opacity="0.6" d="M243.788 159.668H246.366V153.943H243.788V159.668Z" fill="white"/>
<path opacity="0.6" d="M239.579 159.668H242.157V152.792H239.579V159.668Z" fill="white"/>
<path opacity="0.6" d="M390.5 154.979H388.971V158.417H390.5V154.979Z" fill="white"/>
<path opacity="0.6" d="M391.562 159.668H403.734V153.728H391.562V159.668Z" fill="white"/>
<g opacity="0.1">
<path opacity="0.1" d="M312.385 154.056L259.12 353.465L258.526 355.715L257.565 359.317L256.959 361.555L229.151 465.683V339.662L281.24 144.551H282.934C283.626 144.563 284.299 144.78 284.866 145.177C285.434 145.573 285.87 146.13 286.119 146.776L288.179 151.832C288.429 152.476 288.866 153.031 289.433 153.425C290.001 153.819 290.674 154.035 291.365 154.044L312.385 154.056Z" fill="white"/>
<path opacity="0.1" d="M414.112 255.897V381.918L380.919 506.295L380.11 509.316L374.624 529.844H340.989L346.462 509.329L347.347 506.042L351.733 489.56L352.618 486.261L354.388 479.675L355.26 476.376L357.017 469.791L357.889 466.492L385.571 362.819V362.806L386.847 358.028V358.015L414.112 255.897Z" fill="white"/>
<path opacity="0.1" d="M330.612 154.056L277.713 352.226L277.385 353.414L274.49 364.272L274.174 365.46L230.667 528.44C230.192 527.965 229.816 527.399 229.562 526.776C229.308 526.153 229.181 525.485 229.188 524.813V505.6L266.615 365.41L266.931 364.222L269.826 353.364L270.142 352.176L323.053 154.006L330.612 154.056Z" fill="white"/>
</g>
<path opacity="0.3" d="M414.112 168.997H229.188V513.247H414.112V168.997Z" fill="white"/>
<path d="M378.53 320.272C380.24 320.272 381.879 319.593 383.088 318.384C384.297 317.175 384.976 315.536 384.976 313.826V212.137C384.973 210.43 384.292 208.793 383.084 207.587C381.875 206.381 380.238 205.703 378.53 205.703C376.823 205.703 375.185 206.381 373.976 207.587C372.768 208.793 372.087 210.43 372.084 212.137V313.826C372.084 315.536 372.763 317.175 373.972 318.384C375.181 319.593 376.82 320.272 378.53 320.272Z" fill="#9A9A9A"/>
<path opacity="0.3" d="M378.53 317.744C377.491 317.744 376.494 317.332 375.759 316.597C375.025 315.862 374.612 314.865 374.612 313.826V212.137C374.612 211.098 375.025 210.101 375.759 209.366C376.494 208.632 377.491 208.219 378.53 208.219C379.569 208.219 380.566 208.632 381.301 209.366C382.036 210.101 382.448 211.098 382.448 212.137V313.826C382.448 314.865 382.036 315.862 381.301 316.597C380.566 317.332 379.569 317.744 378.53 317.744Z" fill="black"/>
<path d="M387.765 223.67C388.592 218.578 385.134 213.78 380.042 212.953C374.95 212.127 370.151 215.585 369.325 220.677C368.498 225.769 371.956 230.567 377.049 231.394C382.141 232.221 386.939 228.763 387.765 223.67Z" fill="#9A9A9A"/>
<path d="M340.61 320.272C341.457 320.272 342.295 320.106 343.077 319.782C343.859 319.458 344.57 318.983 345.168 318.384C345.767 317.786 346.242 317.075 346.566 316.293C346.89 315.511 347.056 314.672 347.056 313.826V212.137C347.053 210.43 346.372 208.793 345.164 207.587C343.955 206.381 342.317 205.703 340.61 205.703C338.902 205.703 337.265 206.381 336.056 207.587C334.848 208.793 334.167 210.43 334.164 212.137V313.826C334.164 315.536 334.843 317.175 336.052 318.384C337.261 319.593 338.9 320.272 340.61 320.272Z" fill="#9A9A9A"/>
<path opacity="0.3" d="M340.61 317.744C339.571 317.744 338.574 317.332 337.839 316.597C337.104 315.862 336.692 314.865 336.692 313.826V212.137C336.692 211.098 337.104 210.101 337.839 209.366C338.574 208.632 339.571 208.219 340.61 208.219C341.649 208.219 342.646 208.632 343.381 209.366C344.116 210.101 344.528 211.098 344.528 212.137V313.826C344.528 314.865 344.116 315.862 343.381 316.597C342.646 317.332 341.649 317.744 340.61 317.744Z" fill="black"/>
<path d="M349.843 299.505C350.67 294.413 347.212 289.615 342.119 288.788C337.027 287.962 332.229 291.42 331.403 296.512C330.576 301.604 334.034 306.402 339.126 307.229C344.218 308.055 349.017 304.597 349.843 299.505Z" fill="#9A9A9A"/>
<path d="M302.69 320.272C304.4 320.272 306.039 319.593 307.248 318.384C308.457 317.175 309.136 315.536 309.136 313.826V212.137C309.133 210.43 308.452 208.793 307.244 207.587C306.035 206.381 304.398 205.703 302.69 205.703C300.983 205.703 299.345 206.381 298.136 207.587C296.928 208.793 296.247 210.43 296.244 212.137V313.826C296.244 315.536 296.923 317.175 298.132 318.384C299.341 319.593 300.98 320.272 302.69 320.272Z" fill="#9A9A9A"/>
<path opacity="0.3" d="M302.69 317.744C301.651 317.744 300.654 317.332 299.919 316.597C299.184 315.862 298.772 314.865 298.772 313.826V212.137C298.772 211.098 299.184 210.101 299.919 209.366C300.654 208.632 301.651 208.219 302.69 208.219C303.729 208.219 304.726 208.632 305.461 209.366C306.196 210.101 306.608 211.098 306.608 212.137V313.826C306.608 314.865 306.196 315.862 305.461 316.597C304.726 317.332 303.729 317.744 302.69 317.744Z" fill="black"/>
<path d="M311.923 248.95C312.75 243.857 309.292 239.059 304.2 238.233C299.107 237.406 294.309 240.864 293.483 245.956C292.656 251.048 296.114 255.847 301.206 256.673C306.298 257.5 311.097 254.042 311.923 248.95Z" fill="#9A9A9A"/>
<path d="M264.77 320.272C266.48 320.272 268.119 319.593 269.328 318.384C270.537 317.175 271.216 315.536 271.216 313.826V212.137C271.213 210.43 270.532 208.793 269.324 207.587C268.115 206.381 266.478 205.703 264.77 205.703C263.063 205.703 261.425 206.381 260.216 207.587C259.008 208.793 258.327 210.43 258.324 212.137V313.826C258.324 315.536 259.003 317.175 260.212 318.384C261.421 319.593 263.06 320.272 264.77 320.272Z" fill="#9A9A9A"/>
<path opacity="0.3" d="M264.77 317.744C263.731 317.744 262.734 317.332 261.999 316.597C261.265 315.862 260.852 314.865 260.852 313.826V212.137C260.852 211.098 261.265 210.101 261.999 209.366C262.734 208.632 263.731 208.219 264.77 208.219C265.809 208.219 266.806 208.632 267.541 209.366C268.276 210.101 268.689 211.098 268.689 212.137V313.826C268.689 314.865 268.276 315.862 267.541 316.597C266.806 317.332 265.809 317.744 264.77 317.744Z" fill="black"/>
<path d="M273.998 286.868C274.824 281.776 271.366 276.978 266.274 276.152C261.182 275.325 256.384 278.783 255.557 283.875C254.73 288.967 258.188 293.766 263.281 294.592C268.373 295.419 273.171 291.961 273.998 286.868Z" fill="#9A9A9A"/>
<path opacity="0.6" d="M387.765 223.67C388.592 218.578 385.134 213.78 380.042 212.953C374.95 212.127 370.151 215.585 369.325 220.677C368.498 225.769 371.956 230.567 377.049 231.394C382.141 232.221 386.939 228.763 387.765 223.67Z" fill="white"/>
<path opacity="0.6" d="M378.53 228.974C377.183 228.974 375.865 228.574 374.745 227.825C373.625 227.077 372.751 226.013 372.236 224.768C371.72 223.523 371.585 222.153 371.848 220.831C372.111 219.51 372.76 218.296 373.713 217.343C374.665 216.39 375.879 215.741 377.201 215.479C378.522 215.216 379.892 215.351 381.137 215.866C382.382 216.382 383.446 217.255 384.195 218.376C384.943 219.496 385.343 220.813 385.343 222.161C385.34 223.966 384.621 225.697 383.344 226.974C382.067 228.251 380.336 228.97 378.53 228.974Z" fill="white"/>
<path opacity="0.6" d="M349.843 299.505C350.67 294.413 347.212 289.615 342.119 288.788C337.027 287.962 332.229 291.42 331.403 296.512C330.576 301.604 334.034 306.402 339.126 307.229C344.218 308.055 349.017 304.597 349.843 299.505Z" fill="white"/>
<path opacity="0.6" d="M340.61 304.814C339.263 304.814 337.945 304.414 336.825 303.665C335.705 302.917 334.831 301.853 334.316 300.608C333.8 299.363 333.665 297.993 333.928 296.672C334.191 295.35 334.84 294.136 335.793 293.183C336.745 292.23 337.959 291.582 339.281 291.319C340.603 291.056 341.972 291.191 343.217 291.706C344.462 292.222 345.526 293.095 346.275 294.216C347.023 295.336 347.423 296.653 347.423 298.001C347.42 299.807 346.701 301.538 345.424 302.815C344.147 304.091 342.416 304.81 340.61 304.814Z" fill="white"/>
<path opacity="0.6" d="M311.923 248.95C312.75 243.857 309.292 239.059 304.2 238.233C299.107 237.406 294.309 240.864 293.483 245.956C292.656 251.048 296.114 255.847 301.206 256.673C306.298 257.5 311.097 254.042 311.923 248.95Z" fill="white"/>
<path opacity="0.6" d="M302.69 254.254C301.343 254.254 300.025 253.854 298.905 253.105C297.785 252.357 296.911 251.293 296.396 250.048C295.88 248.803 295.745 247.433 296.008 246.112C296.271 244.79 296.92 243.576 297.873 242.623C298.825 241.67 300.039 241.021 301.361 240.759C302.682 240.496 304.052 240.631 305.297 241.146C306.542 241.662 307.606 242.535 308.355 243.656C309.103 244.776 309.503 246.093 309.503 247.441C309.5 249.247 308.781 250.978 307.504 252.254C306.227 253.531 304.496 254.25 302.69 254.254Z" fill="white"/>
<path opacity="0.6" d="M273.998 286.868C274.824 281.776 271.366 276.978 266.274 276.152C261.182 275.325 256.384 278.783 255.557 283.875C254.73 288.967 258.188 293.766 263.281 294.592C268.373 295.419 273.171 291.961 273.998 286.868Z" fill="white"/>
<path opacity="0.6" d="M264.77 292.173C263.423 292.173 262.105 291.774 260.985 291.025C259.865 290.277 258.991 289.213 258.476 287.968C257.96 286.723 257.825 285.353 258.088 284.031C258.351 282.71 259 281.496 259.953 280.543C260.905 279.59 262.119 278.941 263.441 278.679C264.762 278.416 266.132 278.551 267.377 279.066C268.622 279.582 269.686 280.455 270.435 281.575C271.183 282.696 271.583 284.013 271.583 285.361C271.58 287.166 270.861 288.897 269.584 290.174C268.307 291.451 266.576 292.17 264.77 292.173Z" fill="white"/>
<path d="M401.699 343.252H241.601C239.681 343.252 238.125 344.808 238.125 346.728V496.259C238.125 498.179 239.681 499.735 241.601 499.735H401.699C403.619 499.735 405.175 498.179 405.175 496.259V346.728C405.175 344.808 403.619 343.252 401.699 343.252Z" fill="#9A9A9A"/>
<path opacity="0.3" d="M401.699 343.252H241.601C239.681 343.252 238.125 344.808 238.125 346.728V496.259C238.125 498.179 239.681 499.735 241.601 499.735H401.699C403.619 499.735 405.175 498.179 405.175 496.259V346.728C405.175 344.808 403.619 343.252 401.699 343.252Z" fill="black"/>
<path opacity="0.6" d="M306.583 444.688V458.137L313.472 458.832C314.39 463.259 316.14 467.471 318.629 471.245L314.18 476.629L323.698 486.134L329.07 481.685C332.846 484.181 337.063 485.935 341.495 486.855L342.139 493.782H355.601L356.246 486.855C360.678 485.935 364.894 484.181 368.671 481.685L374.043 486.134L383.561 476.629L379.2 471.207C381.688 467.431 383.442 463.22 384.37 458.794L391.296 458.137V444.688L384.37 444.031C383.442 439.601 381.688 435.386 379.2 431.606L383.649 426.234L374.144 416.716L368.772 421.165C364.992 418.678 360.776 416.929 356.347 416.008L355.702 409.081H342.177L341.533 416.008C337.103 416.929 332.887 418.678 329.108 421.165L323.736 416.716L314.218 426.234L318.667 431.606C316.179 435.386 314.425 439.601 313.497 444.031L306.583 444.688ZM348.864 433.198C352.466 433.198 355.988 434.266 358.983 436.268C361.979 438.269 364.313 441.114 365.692 444.442C367.07 447.77 367.431 451.433 366.728 454.966C366.025 458.499 364.291 461.744 361.743 464.292C359.196 466.839 355.951 468.574 352.417 469.277C348.884 469.979 345.222 469.619 341.894 468.24C338.565 466.862 335.721 464.527 333.719 461.532C331.718 458.536 330.65 455.015 330.65 451.412C330.65 449.02 331.121 446.652 332.036 444.442C332.952 442.232 334.293 440.224 335.985 438.533C337.676 436.842 339.684 435.5 341.894 434.585C344.104 433.669 346.472 433.198 348.864 433.198Z" fill="white"/>
<path opacity="0.4" d="M252.054 406.06V416.602L257.489 417.107C258.207 420.579 259.579 423.883 261.534 426.84L258.046 431.024L265.503 438.469L269.712 434.98C272.672 436.935 275.974 438.311 279.445 439.038L279.963 444.46H290.505L291.011 439.038C294.483 438.314 297.785 436.937 300.743 434.98L304.953 438.469L312.41 431.024L308.922 426.802C310.88 423.845 312.257 420.542 312.979 417.069L318.402 416.564V406.022L312.979 405.504C312.253 402.033 310.876 398.73 308.922 395.771L312.41 391.562L304.953 384.104L300.743 387.593C297.782 385.646 294.48 384.273 291.011 383.548L290.505 378.113H279.963L279.445 383.548C275.976 384.276 272.675 385.648 269.712 387.593L265.503 384.104L258.046 391.562L261.534 395.771C259.584 398.731 258.211 402.033 257.489 405.504L252.054 406.06ZM285.234 397.06C288.057 397.06 290.816 397.897 293.162 399.465C295.509 401.033 297.338 403.262 298.418 405.87C299.499 408.477 299.781 411.347 299.231 414.115C298.68 416.883 297.321 419.426 295.325 421.422C293.329 423.418 290.786 424.777 288.018 425.327C285.25 425.878 282.381 425.595 279.773 424.515C277.165 423.435 274.937 421.606 273.369 419.259C271.801 416.912 270.964 414.153 270.964 411.331C270.964 407.546 272.467 403.916 275.143 401.24C277.82 398.564 281.449 397.06 285.234 397.06Z" fill="white"/>
<path opacity="0.2" d="M310.843 373.512V382.36L315.406 382.79C316.019 385.704 317.173 388.478 318.806 390.968L315.874 394.494L322.194 400.814L325.72 397.882C328.21 399.515 330.984 400.669 333.898 401.282L334.328 405.845H343.176L343.606 401.282C346.521 400.671 349.295 399.518 351.784 397.882L355.323 400.814L361.58 394.494L358.647 390.968C360.281 388.478 361.434 385.704 362.048 382.79L366.611 382.36V373.512L362.048 373.082C361.436 370.167 360.283 367.393 358.647 364.904L361.58 361.365L355.323 355.108L351.784 358.041C349.3 356.395 346.524 355.24 343.606 354.64L343.176 350.077H334.328L333.898 354.64C330.981 355.243 328.205 356.397 325.72 358.041L322.194 355.108L315.874 361.365L318.806 364.904C317.17 367.393 316.017 370.167 315.406 373.082L310.843 373.512ZM338.714 365.928C341.087 365.928 343.407 366.632 345.38 367.95C347.353 369.269 348.89 371.143 349.798 373.336C350.705 375.528 350.942 377.941 350.478 380.268C350.014 382.595 348.87 384.733 347.192 386.41C345.513 388.087 343.374 389.228 341.047 389.69C338.719 390.151 336.307 389.912 334.115 389.002C331.923 388.092 330.051 386.553 328.734 384.578C327.418 382.604 326.716 380.284 326.719 377.911C326.724 376.335 327.039 374.777 327.646 373.323C328.254 371.87 329.142 370.55 330.259 369.44C331.376 368.329 332.701 367.45 334.159 366.852C335.616 366.254 337.177 365.948 338.752 365.953L338.714 365.928Z" fill="white"/>
<path opacity="0.6" d="M295.384 408.601L287.952 401.168L277.802 403.899L275.072 414.049L282.504 421.481L292.667 418.763L295.384 408.601Z" fill="white"/>
<path opacity="0.8" d="M350.545 438.494L338.537 443.525L336.906 456.443L347.271 464.33L359.279 459.287L360.922 446.369L350.545 438.494Z" fill="white"/>
<path opacity="0.4" d="M346.172 382.246V373.626L338.714 369.316L331.244 373.626V382.246L338.714 386.557L346.172 382.246Z" fill="white"/>
<path d="M519.744 300.339L533.193 311.26C533.193 311.26 536.48 311.336 537.516 312.423C538.552 313.51 542.572 321.574 541.953 322.674C541.333 323.774 534.76 325.948 533.357 324.646C531.954 323.344 529.565 315.874 529.565 315.077L512.375 303.55L519.744 300.339Z" fill="#B97964"/>
<path d="M527.202 305.142L524.193 311.702C524.193 311.702 505.701 303.044 501.694 298.001C500.67 296.737 499.255 294.626 497.725 292.262C495.197 288.356 492.366 283.654 490.394 280.355C488.928 277.827 487.942 276.209 487.942 276.209L498.408 259.702C500.696 261.458 507.698 289.671 508.95 291.188C510.201 292.705 527.202 305.142 527.202 305.142Z" fill="#263238"/>
<path opacity="0.2" d="M497.725 292.262C495.197 288.356 492.366 283.654 490.394 280.355L495.26 268.347C495.26 268.347 497.902 282.125 497.725 292.262Z" fill="black"/>
<path d="M412.481 237.695L398.299 227.583C398.299 227.583 396.605 224.765 395.152 224.398C393.698 224.031 384.724 224.588 384.041 225.662C383.359 226.736 384.762 233.537 386.569 234.106C388.377 234.674 396.087 233.094 396.757 232.665L411.154 242.612L412.481 237.695Z" fill="#B97964"/>
<path d="M524.37 520.503L516.433 521.906L513.184 511.086L510.214 501.163L519.365 497.965L522.019 509.898L524.37 520.503Z" fill="#B97964"/>
<path opacity="0.2" d="M522.057 510.138L513.222 511.301L510.226 501.265L519.365 498.016L522.057 510.138Z" fill="black"/>
<path d="M471.396 520.705H463.345L462.017 509.898L460.817 499.811L470.385 498.345L470.929 510.201L471.396 520.705Z" fill="#B97964"/>
<path opacity="0.2" d="M470.929 510.922L462.017 510.53L460.817 500.114L470.385 498.509L470.929 510.922Z" fill="black"/>
<path d="M522.803 501.467L509.759 503.767C496.6 470.966 487.234 443.588 480.623 420.874C477.059 408.613 474.24 397.718 472.117 388.01L472.66 423.705V504.336H459.502C427.283 351.392 450.123 315.836 450.123 315.836L488.662 309.389C490.189 316.533 491.27 323.764 491.898 331.042L493.63 343.808L508.709 421.632L522.803 501.467Z" fill="#9A9A9A"/>
<path d="M507.724 502.149L523.903 496.79L523.675 503.666L510.302 507.938L507.724 502.149Z" fill="#9A9A9A"/>
<path opacity="0.6" d="M507.724 502.149L523.903 496.79L523.675 503.666L510.302 507.938L507.724 502.149Z" fill="white"/>
<path d="M457.783 502.895L474.645 500.43L473.229 507.167L459.312 509.051L457.783 502.895Z" fill="#9A9A9A"/>
<path opacity="0.6" d="M457.783 502.895L474.645 500.43L473.229 507.167L459.312 509.051L457.783 502.895Z" fill="white"/>
<path opacity="0.2" d="M482.406 426.878C481.799 424.843 481.142 422.846 480.573 420.874C477.35 409.751 475.188 399.74 472.66 390.766L471.396 374.232C471.396 374.232 479.637 356.069 476.553 343.277C476.844 344.01 482.292 357.94 480.156 371.844C479.656 390.218 480.408 408.606 482.406 426.878Z" fill="black"/>
<path d="M483.505 243.105C483.403 243.18 483.293 243.244 483.177 243.295C481.554 244.217 479.769 244.818 477.918 245.064C472.546 245.583 469.07 244.407 467.048 241.74C464.255 237.771 464.255 231.388 465.696 223.88C466.168 220.872 467.115 217.957 468.502 215.247C468.502 215.247 468.502 215.146 468.502 215.12C468.502 215.095 468.603 214.905 468.666 214.817C469.515 213.299 470.73 212.017 472.2 211.088C473.67 210.158 475.349 209.611 477.084 209.495C478.595 209.359 480.116 209.384 481.622 209.571C496.449 211.341 495.93 236.141 483.505 243.105Z" fill="#B97964"/>
<path opacity="0.2" d="M483.177 243.295C481.55 244.151 479.773 244.683 477.944 244.862C472.572 245.38 469.096 244.028 467.099 241.336C470.122 242.512 473.446 242.667 476.566 241.778C477.711 241.512 478.901 241.51 480.046 241.773C481.192 242.036 482.262 242.556 483.177 243.295Z" fill="black"/>
<path d="M484.276 255.328C485.604 259.461 480.307 261.711 480.307 261.711C470.992 258.779 468.868 254.127 468.868 254.127C475.947 249.501 472.66 238.706 472.66 238.706L474.253 239.313L485.098 240.35C485.098 240.35 482.709 246.303 482.444 247.643C481.142 254.747 484.276 255.328 484.276 255.328Z" fill="#B97964"/>
<path d="M468.502 215.146C468.502 215.146 466.34 225.397 475.567 231.122C475.567 231.122 478.386 242.423 484.567 243.383C492.998 244.647 502.023 233.638 500.683 220.998C498.951 204.604 475.036 200.18 468.502 215.146Z" fill="#263238"/>
<path d="M470.992 227.52C471.207 225.902 472.85 223.361 475.315 224.057C477.779 224.752 478.475 231.363 471.902 231.969C470.954 232.045 470.537 230.87 470.992 227.52Z" fill="#B97964"/>
<path d="M462.485 519.175H471.472C471.657 519.179 471.837 519.244 471.981 519.361C472.125 519.478 472.226 519.639 472.268 519.82L474.114 528.162C474.189 528.519 474.119 528.892 473.92 529.197C473.721 529.503 473.409 529.717 473.052 529.793C472.951 529.805 472.849 529.805 472.749 529.793C469.058 529.73 468.767 529.502 464.141 529.502C461.297 529.502 452.765 529.806 448.783 529.806C444.802 529.806 444.334 525.925 445.939 525.559C453.157 523.991 458.579 521.767 460.905 519.732C461.34 519.35 461.906 519.151 462.485 519.175Z" fill="#263238"/>
<path d="M459.388 520.768C458.754 520.818 458.122 520.653 457.593 520.3C457.415 520.161 457.277 519.975 457.195 519.764C457.113 519.553 457.089 519.323 457.126 519.1C457.124 518.971 457.159 518.845 457.226 518.735C457.293 518.626 457.39 518.537 457.505 518.48C458.541 517.949 461.575 519.744 461.904 520.022C461.942 520.043 461.973 520.074 461.994 520.112C462.014 520.151 462.022 520.194 462.017 520.237C462.009 520.282 461.988 520.324 461.957 520.358C461.925 520.392 461.885 520.416 461.84 520.427C461.038 520.629 460.216 520.744 459.388 520.768ZM457.998 518.834C457.903 518.809 457.802 518.809 457.707 518.834C457.707 518.834 457.581 518.923 457.568 519.1C457.55 519.247 457.568 519.397 457.621 519.535C457.674 519.674 457.76 519.798 457.871 519.896C458.921 520.376 460.114 520.439 461.208 520.073C460.223 519.477 459.134 519.074 457.998 518.885V518.834Z" fill="#9A9A9A"/>
<path d="M461.79 520.49H461.676C460.715 519.972 458.845 517.962 459.034 516.913C459.067 516.747 459.157 516.597 459.289 516.491C459.42 516.385 459.585 516.328 459.755 516.331C459.922 516.315 460.091 516.333 460.252 516.383C460.412 516.432 460.561 516.514 460.69 516.622C461.777 517.494 461.954 520.187 461.954 520.326C461.951 520.366 461.939 520.404 461.919 520.439C461.9 520.474 461.873 520.504 461.84 520.528C461.821 520.518 461.804 520.506 461.79 520.49ZM459.906 516.698H459.793C459.515 516.698 459.489 516.875 459.477 516.926C459.35 517.532 460.551 519.1 461.512 519.82C461.445 518.753 461.057 517.731 460.399 516.888C460.263 516.766 460.089 516.694 459.906 516.685V516.698Z" fill="#9A9A9A"/>
<path d="M516.129 519.175H525.116C525.303 519.174 525.484 519.238 525.629 519.356C525.775 519.473 525.875 519.637 525.913 519.82L527.771 528.162C527.808 528.34 527.809 528.523 527.775 528.702C527.741 528.88 527.672 529.049 527.572 529.201C527.472 529.352 527.344 529.483 527.193 529.584C527.043 529.686 526.874 529.757 526.696 529.793C526.595 529.805 526.494 529.805 526.393 529.793C522.715 529.73 522.411 529.502 517.798 529.502C514.954 529.502 506.422 529.806 502.427 529.806C498.433 529.806 497.991 525.925 499.596 525.559C506.813 523.991 512.236 521.767 514.549 519.732C514.986 519.352 515.551 519.153 516.129 519.175Z" fill="#263238"/>
<path d="M513.032 520.768C512.398 520.82 511.765 520.655 511.237 520.3C511.059 520.161 510.921 519.975 510.839 519.764C510.757 519.553 510.733 519.323 510.77 519.1C510.767 518.971 510.801 518.844 510.868 518.734C510.935 518.624 511.033 518.536 511.149 518.48C512.185 517.949 515.206 519.744 515.548 520.022C515.585 520.043 515.615 520.075 515.633 520.113C515.651 520.152 515.657 520.195 515.649 520.237C515.643 520.281 515.624 520.323 515.595 520.357C515.566 520.39 515.527 520.415 515.484 520.427C514.682 520.628 513.86 520.742 513.032 520.768ZM511.642 518.834C511.547 518.809 511.446 518.809 511.351 518.834C511.288 518.834 511.225 518.923 511.212 519.1C511.191 519.246 511.207 519.395 511.258 519.534C511.308 519.673 511.393 519.797 511.503 519.896C512.553 520.376 513.745 520.439 514.84 520.073C513.86 519.475 512.774 519.071 511.642 518.885V518.834Z" fill="#9A9A9A"/>
<path d="M515.421 520.49H515.32C514.347 519.972 512.476 517.962 512.678 516.913C512.711 516.749 512.799 516.601 512.928 516.495C513.057 516.389 513.219 516.331 513.386 516.331C513.556 516.313 513.727 516.33 513.89 516.38C514.053 516.43 514.204 516.512 514.334 516.622C515.409 517.494 515.598 520.187 515.598 520.326C515.597 520.365 515.588 520.403 515.57 520.438C515.553 520.473 515.528 520.504 515.497 520.528C515.47 520.52 515.444 520.508 515.421 520.49ZM513.538 516.698H513.437C513.146 516.698 513.121 516.875 513.108 516.926C512.994 517.532 514.183 519.1 515.156 519.82C515.089 518.753 514.701 517.731 514.044 516.888C513.903 516.764 513.725 516.692 513.538 516.685V516.698Z" fill="#9A9A9A"/>
<path d="M450.123 315.912C450.123 315.912 442.767 271.115 455.407 251.018C455.407 251.018 480.687 249.45 498.383 259.702C498.383 259.702 491.039 279.647 489.952 315.912H450.123Z" fill="#263238"/>
<path opacity="0.2" d="M447.823 281.632C447.279 275.552 449.087 269.7 449.339 264.543C452.501 261.75 455.292 258.564 457.644 255.063C457.644 255.063 459.944 273.214 447.823 281.632Z" fill="black"/>
<path d="M458.529 250.929C458.529 250.929 433.552 248.009 429.76 246.48C427.409 245.481 409.018 233.474 409.018 233.474L404.708 239.895C404.708 239.895 423.528 255.063 426.701 256.832C434.159 260.928 450.932 266.704 450.932 266.704C450.932 266.704 461.044 259.613 458.529 250.929Z" fill="#263238"/>
<path d="M495.26 212.921C495.26 212.921 503.843 205.615 512.362 210.203C520.882 214.792 510.959 232.475 513.449 237.898C515.94 243.32 521.337 242.954 514.524 246.48C507.711 250.007 514.309 253.002 514.309 253.002C514.309 253.002 508.216 255.075 507.711 250.045C507.205 245.014 505.006 240.881 503.034 240.021C501.062 239.162 506.384 229.631 504.538 224.916C502.693 220.202 497.346 220.593 497.346 220.593L495.26 212.921Z" fill="#263238"/>
<path d="M481.66 209.571C481.66 209.571 470.84 202.796 465.746 207.612C457.884 215.057 469.096 225.75 480.914 230.819L481.66 209.571Z" fill="#263238"/>
<path d="M252.206 346.576L163.549 247.858C165.206 244.259 165.841 240.275 165.384 236.34C164.928 232.405 163.397 228.671 160.961 225.548C158.524 222.424 155.275 220.032 151.569 218.632C147.863 217.232 143.843 216.878 139.95 217.61C139.679 217.654 139.425 217.77 139.215 217.947C139.005 218.123 138.847 218.354 138.757 218.613C138.668 218.873 138.65 219.151 138.707 219.42C138.763 219.689 138.892 219.937 139.078 220.138L150.707 233.094C150.931 233.341 151.085 233.644 151.154 233.97C151.223 234.297 151.204 234.636 151.099 234.952L148.571 242.675C148.465 242.991 148.279 243.274 148.031 243.496C147.783 243.718 147.481 243.87 147.155 243.939L139.204 245.621C138.878 245.688 138.539 245.669 138.221 245.565C137.904 245.46 137.62 245.275 137.397 245.026L125.768 232.083C125.585 231.896 125.356 231.76 125.104 231.688C124.853 231.616 124.587 231.61 124.333 231.672C124.078 231.733 123.844 231.858 123.652 232.037C123.461 232.215 123.319 232.44 123.24 232.69C122.096 236.481 122.017 240.514 123.012 244.347C124.007 248.181 126.039 251.666 128.883 254.422C131.727 257.177 135.275 259.097 139.138 259.97C143.001 260.843 147.03 260.637 150.783 259.373L239.44 358.091C237.784 361.688 237.149 365.672 237.605 369.605C238.061 373.539 239.591 377.272 242.026 380.394C244.461 383.517 247.708 385.91 251.412 387.311C255.116 388.712 259.134 389.068 263.026 388.339C263.298 388.297 263.553 388.182 263.765 388.006C263.977 387.83 264.137 387.6 264.228 387.341C264.319 387.081 264.337 386.801 264.281 386.532C264.225 386.262 264.097 386.013 263.911 385.811L252.244 372.88C252.02 372.63 251.866 372.326 251.797 371.997C251.728 371.669 251.747 371.328 251.852 371.009L254.38 363.299C254.483 362.982 254.668 362.698 254.917 362.476C255.166 362.253 255.469 362.101 255.796 362.035L263.734 360.354C264.061 360.285 264.4 360.303 264.717 360.408C265.035 360.512 265.319 360.698 265.541 360.948L277.183 373.891C277.364 374.081 277.593 374.221 277.845 374.295C278.098 374.369 278.365 374.376 278.621 374.315C278.877 374.253 279.112 374.126 279.303 373.945C279.495 373.764 279.635 373.536 279.711 373.285C280.85 369.494 280.926 365.462 279.929 361.632C278.932 357.801 276.901 354.318 274.057 351.563C271.214 348.809 267.669 346.889 263.808 346.014C259.948 345.139 255.921 345.342 252.168 346.601L252.206 346.576Z" fill="#9A9A9A"/>
<path opacity="0.7" d="M252.206 346.576L163.549 247.858C165.206 244.259 165.841 240.275 165.384 236.34C164.928 232.405 163.397 228.671 160.961 225.548C158.524 222.424 155.275 220.032 151.569 218.632C147.863 217.232 143.843 216.878 139.95 217.61C139.679 217.654 139.425 217.77 139.215 217.947C139.005 218.123 138.847 218.354 138.757 218.613C138.668 218.873 138.65 219.151 138.707 219.42C138.763 219.689 138.892 219.937 139.078 220.138L150.707 233.094C150.931 233.341 151.085 233.644 151.154 233.97C151.223 234.297 151.204 234.636 151.099 234.952L148.571 242.675C148.465 242.991 148.279 243.274 148.031 243.496C147.783 243.718 147.481 243.87 147.155 243.939L139.204 245.621C138.878 245.688 138.539 245.669 138.221 245.565C137.904 245.46 137.62 245.275 137.397 245.026L125.768 232.083C125.585 231.896 125.356 231.76 125.104 231.688C124.853 231.616 124.587 231.61 124.333 231.672C124.078 231.733 123.844 231.858 123.652 232.037C123.461 232.215 123.319 232.44 123.24 232.69C122.096 236.481 122.017 240.514 123.012 244.347C124.007 248.181 126.039 251.666 128.883 254.422C131.727 257.177 135.275 259.097 139.138 259.97C143.001 260.843 147.03 260.637 150.783 259.373L239.44 358.091C237.784 361.688 237.149 365.672 237.605 369.605C238.061 373.539 239.591 377.272 242.026 380.394C244.461 383.517 247.708 385.91 251.412 387.311C255.116 388.712 259.134 389.068 263.026 388.339C263.298 388.297 263.553 388.182 263.765 388.006C263.977 387.83 264.137 387.6 264.228 387.341C264.319 387.081 264.337 386.801 264.281 386.532C264.225 386.262 264.097 386.013 263.911 385.811L252.244 372.88C252.02 372.63 251.866 372.326 251.797 371.997C251.728 371.669 251.747 371.328 251.852 371.009L254.38 363.299C254.483 362.982 254.668 362.698 254.917 362.476C255.166 362.253 255.469 362.101 255.796 362.035L263.734 360.354C264.061 360.285 264.4 360.303 264.717 360.408C265.035 360.512 265.319 360.698 265.541 360.948L277.183 373.891C277.364 374.081 277.593 374.221 277.845 374.295C278.098 374.369 278.365 374.376 278.621 374.315C278.877 374.253 279.112 374.126 279.303 373.945C279.495 373.764 279.635 373.536 279.711 373.285C280.85 369.494 280.926 365.462 279.929 361.632C278.932 357.801 276.901 354.318 274.057 351.563C271.214 348.809 267.669 346.889 263.808 346.014C259.948 345.139 255.921 345.342 252.168 346.601L252.206 346.576Z" fill="white"/>
<path d="M152.047 230.25C152.047 230.25 125.718 233.701 122.305 238.39C118.892 243.08 118.702 247.441 134.262 251.915L138.825 248.591C138.825 248.591 132.366 246.126 133.125 244.609C133.883 243.092 152.085 243.661 152.085 243.661L152.047 230.25Z" fill="#E4897B"/>
<path d="M161.931 229.909L158.265 242.688L152.11 243.623L139.217 245.583L138.838 240.425L138.092 230.238C138.092 230.238 150.757 227.697 161.931 229.909Z" fill="#9A9A9A"/>
<path opacity="0.2" d="M155.472 235.319L152.148 243.636L139.255 245.595L138.876 240.438C145.36 235.344 155.472 235.319 155.472 235.319Z" fill="black"/>
<path d="M152.906 520.427L163.145 521.501L163.675 515.56L165.066 499.394L154.815 498.307L153.26 516.167L152.906 520.427Z" fill="#E4897B"/>
<path d="M101.727 519.125H111.662L111.763 516.875V516.597L112.281 502.187V501.896L112.496 496.373H102.548L101.727 519.125Z" fill="#E4897B"/>
<path opacity="0.2" d="M154.815 498.307L153.26 516.167L163.675 515.56L165.066 499.394L154.815 498.307Z" fill="black"/>
<path opacity="0.2" d="M101.79 517.861H101.815L111.763 516.597L112.281 502.693L102.308 503.489L101.815 517.431L101.79 517.861Z" fill="black"/>
<path d="M113.04 518.531H100.968C100.77 518.529 100.578 518.597 100.423 518.721C100.269 518.845 100.162 519.019 100.121 519.213L98.1623 528.061C98.0838 528.442 98.1596 528.838 98.3729 529.162C98.5861 529.487 98.9196 529.714 99.2999 529.793C99.4049 529.805 99.5109 529.805 99.6159 529.793C103.522 529.73 106.366 529.49 111.27 529.49C114.291 529.49 123.404 529.806 127.576 529.806C131.747 529.806 132.29 525.685 130.584 525.306C122.924 523.637 117.16 521.324 114.708 519.125C114.249 518.719 113.652 518.506 113.04 518.531Z" fill="#263238"/>
<path d="M164.232 518.24H152.16C151.962 518.239 151.77 518.306 151.615 518.43C151.461 518.555 151.354 518.729 151.314 518.922L149.354 527.77C149.276 528.151 149.352 528.547 149.565 528.872C149.778 529.196 150.112 529.423 150.492 529.502C150.597 529.514 150.703 529.514 150.808 529.502C154.714 529.439 157.558 529.199 162.462 529.199C165.483 529.199 174.596 529.515 178.768 529.515C182.939 529.515 183.482 525.394 181.776 525.015C174.116 523.346 168.352 521.033 165.9 518.834C165.441 518.428 164.844 518.216 164.232 518.24Z" fill="#263238"/>
<path d="M166.014 514.069H151.44C151.44 514.069 147.256 388.048 131.456 345.704C133.39 424.489 114.822 515.333 114.822 515.333H100.463C100.463 515.333 107.048 444.207 107.048 413.1C107.048 357.977 91.8802 331.067 106.644 295.397H159.378C172.296 373.196 177.263 428.117 166.014 514.069Z" fill="#263238"/>
<path d="M167.644 509.961L166.937 514.069H149.708V510.277L167.644 509.961Z" fill="#9A9A9A"/>
<path d="M116.516 511.541L114.86 515.333H100.412L99.4642 511.541H116.516Z" fill="#9A9A9A"/>
<path d="M204.768 234.535C204.376 234.851 203.984 235.142 203.58 235.407C201.263 236.969 198.524 237.785 195.73 237.746C195.023 237.738 194.318 237.678 193.62 237.569C190.932 237.165 188.449 235.897 186.547 233.956C184.645 232.015 183.427 229.507 183.078 226.812C182.079 219.81 185.606 215.221 191.041 206.993C192.27 205.049 193.976 203.452 195.997 202.354C198.018 201.256 200.286 200.693 202.586 200.72C204.886 200.746 207.14 201.361 209.135 202.506C211.13 203.65 212.799 205.286 213.983 207.258C219.43 216.144 211.783 228.695 204.768 234.535Z" fill="#E4897B"/>
<path opacity="0.2" d="M195.768 237.746C195.061 237.738 194.356 237.678 193.657 237.569C191.815 237.292 190.058 236.606 188.514 235.563C186.97 234.52 185.678 233.145 184.734 231.539C185.788 230.852 186.926 230.304 188.121 229.909C191.369 231.733 194.024 234.454 195.768 237.746Z" fill="black"/>
<path d="M172.296 236.204C173.56 242.625 184.064 248.376 184.064 248.376C184.064 248.376 191.218 251.157 191.344 248.376C188.26 245.203 187.78 242.309 188.627 239.692C189.209 238.114 190.099 236.666 191.243 235.433C191.85 234.723 192.5 234.052 193.19 233.423L187.881 215.967C185.151 222.868 179.197 234.864 172.296 236.204Z" fill="#E4897B"/>
<path d="M218.407 208.459C217.332 202.467 214.299 202.139 214.299 202.139C214.008 197.361 202.733 192.532 195.339 194.087C187.944 195.642 182.926 202.151 180.904 208.143C177.971 216.877 179.741 227.71 179.741 227.71C185.72 232.26 191.939 233.094 193.822 229.732C195.705 226.37 200.382 225.207 200.382 225.207C203.226 227.672 207.726 225.207 207.726 225.207C207.726 225.207 212.782 223.45 213.705 218.47C214.627 213.49 219.304 213.515 218.407 208.459Z" fill="#263238"/>
<path d="M200.18 222.464C199.771 223.316 199.56 224.249 199.56 225.194C199.56 226.139 199.771 227.072 200.18 227.924C201.279 229.795 203.972 228.316 205.539 225.763C206.879 223.5 207.991 219.734 205.981 218.849C203.972 217.964 201.191 219.936 200.18 222.464Z" fill="#E4897B"/>
<path d="M201.469 194.074C212.554 190.775 221.478 208.964 221.048 218.609C220.682 226.446 212.453 225.498 212.453 225.498C212.453 225.498 217.004 225.194 216.561 219.696C216.561 219.696 214.589 226.433 210.178 222.009C205.767 217.585 211 207.043 211 207.043L201.469 194.074Z" fill="#263238"/>
<path opacity="0.2" d="M130.28 397.212C129.044 384.999 127.184 372.857 124.706 360.834C109.778 342.076 117.931 324.76 117.931 324.76C119.928 336.805 131.456 345.704 131.456 345.704C131.911 362.654 131.38 380.161 130.28 397.212Z" fill="black"/>
<path d="M172.271 233.322C172.271 233.322 175.469 230.945 181.397 234.447C185.107 236.848 187.881 240.448 189.259 244.647L172.271 233.322Z" fill="#9A9A9A"/>
<path d="M165.066 320.272C165.066 320.272 165.066 289.519 197.222 252.294C197.222 252.294 182.787 232.146 161.931 229.909C161.931 229.909 123.43 243.118 102.46 299.429L165.066 320.272Z" fill="#9A9A9A"/>
<path opacity="0.6" d="M197.184 252.294C193.813 256.238 190.759 260.097 188.02 263.873C183.224 270.476 178.995 277.474 175.38 284.792C165.041 305.85 165.041 320.272 165.041 320.272L102.422 299.416C123.392 243.118 161.893 229.896 161.893 229.896C182.787 232.146 197.184 252.294 197.184 252.294Z" fill="white"/>
<path d="M165.458 315.861C165.319 316.897 165.23 317.757 165.18 318.389L103.307 297.192C103.61 296.395 103.926 295.612 104.242 294.841L165.458 315.861Z" fill="#9A9A9A"/>
<path d="M166.545 309.604C166.355 310.502 166.178 311.336 166.039 312.132C144.551 303.853 120.194 294.613 106.378 289.835C106.72 289.051 107.073 288.293 107.427 287.535C122.836 292.831 149.506 303.019 166.545 309.604Z" fill="#9A9A9A"/>
<path d="M168.175 303.259C167.922 304.106 167.695 304.927 167.48 305.711C150.416 298.304 124.82 287.547 109.829 282.592C110.221 281.821 110.613 281.076 111.005 280.33C126.274 285.411 151.351 295.966 168.175 303.259Z" fill="#9A9A9A"/>
<path d="M170.286 296.774C169.995 297.609 169.705 298.418 169.439 299.201C152.83 291.188 128.991 280.241 113.672 275.552C114.101 274.794 114.544 274.048 114.936 273.327C130.584 278.156 153.892 288.862 170.286 296.774Z" fill="#9A9A9A"/>
<path d="M172.903 290.24C172.549 291.036 172.22 291.82 171.917 292.603C156.028 284.109 133.997 273.188 117.919 268.701C118.412 267.955 118.917 267.209 119.423 266.489C135.69 271.178 157.254 281.872 172.903 290.24Z" fill="#9A9A9A"/>
<path d="M175.987 283.629C175.595 284.413 175.216 285.196 174.849 285.967C159.909 277.119 139.584 266.426 122.659 262.027C123.215 261.281 123.771 260.561 124.34 259.84C141.391 264.467 161.274 274.945 175.987 283.629Z" fill="#9A9A9A"/>
<path d="M179.488 277.031C179.046 277.802 178.628 278.56 178.224 279.306C164.32 270.357 145.638 259.942 127.929 255.492C128.561 254.759 129.193 254.051 129.851 253.356C147.61 258.02 165.9 268.195 179.488 277.031Z" fill="#9A9A9A"/>
<path d="M183.482 270.572C183.015 271.28 182.572 271.988 182.13 272.695C169.389 263.734 152.173 253.735 133.933 249.147C134.654 248.439 135.362 247.757 136.07 247.099C154.056 251.903 170.918 261.749 183.482 270.572Z" fill="#9A9A9A"/>
<path d="M187.881 264.176L186.427 266.224C174.862 257.376 159.087 247.807 140.721 243.055C141.555 242.372 142.364 241.715 143.161 241.095C161.097 246.025 176.492 255.416 187.881 264.176Z" fill="#9A9A9A"/>
<path d="M192.697 257.755C192.166 258.425 191.648 259.082 191.142 259.752C178.685 249.303 164.167 241.594 148.533 237.126C149.506 236.469 150.441 235.862 151.339 235.319C166.48 239.971 180.541 247.599 192.697 257.755Z" fill="#9A9A9A"/>
<path d="M197.184 252.294L196.186 253.47C185.08 243.544 171.965 236.129 157.735 231.729C159.289 230.958 160.465 230.465 161.16 230.187C172.928 234.166 183.902 240.186 193.582 247.971C194.861 249.345 196.063 250.789 197.184 252.294Z" fill="#9A9A9A"/>
<path opacity="0.2" d="M188.058 263.873C183.262 270.476 179.033 277.474 175.418 284.792C175.338 280.008 176.346 275.269 178.365 270.931C180.383 266.594 183.361 262.771 187.072 259.752L188.058 263.873Z" fill="black"/>
<path d="M197.184 261.8V300.832L212.352 327.907L218.558 334.821C218.558 334.821 211.303 339.295 209.306 336.426C207.691 333.728 206.353 330.874 205.312 327.907C205.312 327.907 190.321 307.771 187.97 302.968C185.619 298.165 184.772 269.08 184.772 269.08L197.184 261.8Z" fill="#E4897B"/>
<path d="M197.184 252.294C199.56 258.867 199.548 281.265 199.548 281.265L182.699 282.744L181.359 273.896C181.763 268.147 183.768 262.625 187.148 257.957C188.326 256.358 189.83 255.027 191.56 254.051C193.289 253.075 195.206 252.476 197.184 252.294Z" fill="#9A9A9A"/>
</svg>
