<svg width="91" height="91" viewBox="0 0 91 91" fill="none" xmlns="http://www.w3.org/2000/svg">
<path d="M45.5 48.3438C51.6804 48.3438 57.1404 49.8225 61.5767 51.7562C65.6717 53.5763 68.25 57.6712 68.25 62.1075V68.25H22.75V62.1454C22.75 57.6712 25.3283 53.5763 29.4233 51.7942C33.8596 49.8225 39.3196 48.3438 45.5 48.3438ZM15.1667 49.2917C19.3375 49.2917 22.75 45.8792 22.75 41.7083C22.75 37.5375 19.3375 34.125 15.1667 34.125C10.9958 34.125 7.58333 37.5375 7.58333 41.7083C7.58333 45.8792 10.9958 49.2917 15.1667 49.2917ZM19.4513 53.4625C18.0483 53.235 16.6454 53.0833 15.1667 53.0833C11.4129 53.0833 7.84875 53.8796 4.62583 55.2825C1.82 56.4958 0 59.2258 0 62.2971V68.25H17.0625V62.1454C17.0625 58.9983 17.9346 56.0408 19.4513 53.4625ZM75.8333 49.2917C80.0042 49.2917 83.4167 45.8792 83.4167 41.7083C83.4167 37.5375 80.0042 34.125 75.8333 34.125C71.6625 34.125 68.25 37.5375 68.25 41.7083C68.25 45.8792 71.6625 49.2917 75.8333 49.2917ZM91 62.2971C91 59.2258 89.18 56.4958 86.3742 55.2825C83.1513 53.8796 79.5871 53.0833 75.8333 53.0833C74.3546 53.0833 72.9517 53.235 71.5488 53.4625C73.0654 56.0408 73.9375 58.9983 73.9375 62.1454V68.25H91V62.2971ZM45.5 22.75C51.7942 22.75 56.875 27.8308 56.875 34.125C56.875 40.4192 51.7942 45.5 45.5 45.5C39.2058 45.5 34.125 40.4192 34.125 34.125C34.125 27.8308 39.2058 22.75 45.5 22.75Z" fill="white"/>
</svg>
