<svg width="91" height="91" viewBox="0 0 91 91" fill="none" xmlns="http://www.w3.org/2000/svg">
<path d="M73.25 26.1667H58.0833V18.5833C58.0833 14.3746 54.7088 11 50.5 11H35.3333C31.1246 11 27.75 14.3746 27.75 18.5833V26.1667H12.5833C8.37458 26.1667 5.03792 29.5412 5.03792 33.75L5 75.4583C5 79.6671 8.37458 83.0417 12.5833 83.0417H73.25C77.4587 83.0417 80.8333 79.6671 80.8333 75.4583V33.75C80.8333 29.5412 77.4587 26.1667 73.25 26.1667ZM50.5 26.1667H35.3333V18.5833H50.5V26.1667Z" fill="white"/>
<rect x="5.05554" y="45.5" width="75.8333" height="2.52778" fill="#B00D15"/>
<path d="M36.6528 48.0278H39.1805V55.6112H38.6528C37.5482 55.6112 36.6528 54.7157 36.6528 53.6112V48.0278Z" fill="#B00D15"/>
<path d="M46.7639 48.0278H49.2917V53.6112C49.2917 54.7157 48.3963 55.6112 47.2917 55.6112H46.7639V48.0278Z" fill="#B00D15"/>
<path d="M39 52.6099H47V55.6099H39V52.6099Z" fill="#B00D15"/>
</svg>
